<svg viewBox="0 0 1640 864" fill="none" xmlns="http://www.w3.org/2000/svg">
      <rect width="1640" height="183" fill="#F5F5F5"/>
      <path d="M0 196H1640V162.893C1640 161.539 1639.47 160.24 1638.51 159.279L1612.45 133.179C1611.49 132.217 1610.19 131.677 1608.83 131.677C1607.47 131.677 1606.17 132.217 1605.2 133.179L1591.21 147.194C1590.25 148.156 1588.94 148.697 1587.59 148.697C1586.23 148.697 1584.92 148.156 1583.96 147.194L1563.3 126.502C1562.34 125.54 1561.04 125 1559.68 125C1558.32 125 1557.02 125.54 1556.06 126.502L1536.44 146.146C1535.48 147.108 1534.18 147.648 1532.82 147.648C1531.46 147.648 1530.15 147.108 1529.19 146.146L1519 135.938C1518.04 134.976 1516.74 134.436 1515.38 134.436C1514.02 134.436 1512.72 134.976 1511.75 135.938L1485.77 161.955C1484.81 162.917 1483.51 163.457 1482.15 163.457C1480.79 163.457 1479.49 162.917 1478.53 161.955L1463.27 146.67C1462.31 145.708 1461 145.168 1459.64 145.168C1458.28 145.168 1456.98 145.708 1456.02 146.67L1422.02 180.716C1421.06 181.67 1419.77 182.205 1418.41 182.205H0V196Z" fill="#278C8E"/>
      <path d="M290 283C440.534 283 508.96 704.989 731.978 752.839C954.995 800.69 1000.78 705.908 1230.17 705.908C1459.55 705.908 1640 864 1640 864V207H0V283H290Z" fill="#63A4A5"/>
      <!-- begin ship -->
    <g id="svg-ship">
      <path d="M1093 80.7213C1093 83.4055 1094.07 85.9798 1095.96 87.8778C1097.86 89.7758 1100.44 90.8421 1103.12 90.8421H1191.07V103.493H1103.09C1100.41 103.493 1097.84 104.559 1095.94 106.457C1094.04 108.355 1092.97 110.93 1092.97 113.614C1092.97 116.298 1094.04 118.872 1095.94 120.77C1097.84 122.668 1100.41 123.735 1103.09 123.735H1191.04V142.534C1191.04 149.244 1188.38 155.68 1183.63 160.425C1178.89 165.17 1172.45 167.836 1165.74 167.836H1093.63C1086.92 167.836 1080.49 165.17 1075.74 160.425C1071 155.68 1068.33 149.244 1068.33 142.534V39.302C1068.33 32.5915 1071 26.1558 1075.74 21.4108C1080.49 16.6657 1086.92 14 1093.63 14H1165.74C1172.45 14 1178.89 16.6657 1183.63 21.4108C1188.38 26.1558 1191.04 32.5915 1191.04 39.302V70.6005H1103.09C1100.42 70.6072 1097.85 71.6765 1095.95 73.5737C1094.06 75.471 1093 78.0415 1093 80.7213Z" fill="#A8A7A7"/>
      <path d="M681.259 152.832V108.629H585.744V152.832H681.259Z" fill="#278B90"/>
      <path d="M776.775 152.857V108.655H681.26V152.857H776.775Z" fill="#F3EAE1"/>
      <path d="M872.289 152.832V108.629H776.774V152.832H872.289Z" fill="#679DA1"/>
      <path d="M967.778 152.832V108.629H872.263V152.832H967.778Z" fill="#F3EAE1"/>
      <path d="M1063.04 152.832V108.629H967.525V152.832H1063.04Z" fill="#679DA1"/>
      <path d="M681.259 64.4268V108.629H585.744V74.4464C585.744 71.7622 586.81 69.1879 588.708 67.2899C590.606 65.3919 593.18 64.3256 595.865 64.3256H681.259V64.4268Z" fill="#EC626E"/>
      <path d="M776.775 108.629V64.4269H681.26V108.629H776.775Z" fill="#63A0A6"/>
      <path d="M872.265 108.629V64.4269H776.75V108.629H872.265Z" fill="#EC626E"/>
      <path d="M967.778 108.629V64.4269H872.263V108.629H967.778Z" fill="#278B90"/>
      <path d="M1063.04 74.7247V108.629H967.525V64.4268H1052.72C1055.45 64.4268 1058.08 65.5144 1060.02 67.4504C1061.95 69.3864 1063.04 72.0122 1063.04 74.7501V74.7247Z" fill="#EC626E"/>
      <path d="M1387.36 77.0778V108.629H1291.85V64.4268H1374.71C1378.07 64.4268 1381.28 65.7597 1383.66 68.1322C1386.03 70.5048 1387.36 73.7226 1387.36 77.0778Z" fill="#278B90"/>
      <path d="M1291.87 64.4269V108.705H1196.36V74.8766C1196.36 73.4958 1196.63 72.1286 1197.16 70.8541C1197.69 69.5797 1198.47 68.4232 1199.45 67.4515C1200.43 66.4798 1201.6 65.7122 1202.88 65.1931C1204.16 64.6739 1205.53 64.4135 1206.91 64.4269H1291.87Z" fill="#EC626E"/>
      <path d="M1387.39 152.832V108.629H1291.87V152.832H1387.39Z" fill="#EC626E"/>
      <path d="M1291.87 152.857V108.655H1196.36V152.857H1291.87Z" fill="#F3EAE1"/>
      <path d="M1217.99 52.1554C1223.57 52.1554 1228.09 47.6355 1228.09 42.0599C1228.09 36.4843 1223.57 31.9644 1217.99 31.9644L1035.51 31.9644C1029.94 31.9644 1025.42 36.4843 1025.42 42.0599C1025.42 47.6355 1029.94 52.1554 1035.51 52.1554L1217.99 52.1554Z" fill="#A8A7A7"/>
      <path d="M572.461 227.903C574.304 229.522 575.742 231.549 576.661 233.824L1388.55 222.665C1395.74 209.534 1398.01 205.713 1400.87 188.913V183.22H530.915C541.162 198.148 555.635 213.051 572.461 227.903Z" fill="#EF794C"/>
      <path d="M1392.24 133.198L1151.88 133.046C1150.47 138.472 1147.31 143.279 1142.88 146.714C1138.46 150.148 1133.01 152.015 1127.41 152.022H665.547C659.881 152.019 654.381 150.115 649.927 146.615C645.472 143.115 642.321 138.221 640.978 132.717H520.313C516.442 135.652 515.076 136.841 515 138.815C515.133 149.028 517.6 159.076 522.211 168.19H1401V138.713C1401 136.183 1395.13 133.02 1392.24 133.198Z" fill="#EF794C"/>
      <path d="M522.237 168.089C524.773 173.371 527.717 178.446 531.042 183.27H1401V168.089H522.237Z" fill="#A8A7A7"/>
      <path d="M551.283 207.585C557.786 214.366 564.921 221.147 572.587 227.827C574.43 229.446 575.869 231.473 576.788 233.748C579.672 241.035 575.674 248.929 572.587 253.129C563.251 265.628 534.963 266.741 535.267 279.696C535.394 284.908 543.819 284.756 543.819 284.756H1337.14C1337.14 284.756 1339.14 264.262 1345.56 250.801C1352.34 236.607 1385.26 241.566 1394.19 215.252C1395.05 212.722 1395.94 210.192 1396.72 207.51L551.283 207.585Z" fill="#E15A25"/>
      <path d="M1359.07 267.475H1317.86C1315.19 267.475 1313.02 269.633 1313.02 272.295C1313.02 274.957 1315.19 277.115 1317.86 277.115H1359.07C1361.74 277.115 1363.91 274.957 1363.91 272.295C1363.91 269.633 1361.74 267.475 1359.07 267.475Z" fill="#363636"/>
      <path d="M1341.74 260.72H1272.34C1265.67 260.72 1260.27 266.117 1260.27 272.776C1260.27 279.434 1265.67 284.832 1272.34 284.832H1341.74C1348.41 284.832 1353.81 279.434 1353.81 272.776C1353.81 266.117 1348.41 260.72 1341.74 260.72Z" fill="#E15A25"/>
      <path d="M1386.73 247.183C1387.93 247.183 1389.08 247.66 1389.93 248.51C1390.78 249.359 1391.26 250.511 1391.26 251.712V280.784C1391.25 281.86 1390.82 282.89 1390.06 283.648C1389.29 284.407 1388.26 284.832 1387.19 284.832H1371.7C1370.62 284.832 1369.58 284.403 1368.82 283.639C1368.06 282.875 1367.63 281.839 1367.63 280.759V220.97C1367.63 219.896 1368.05 218.867 1368.81 218.108C1369.57 217.348 1370.6 216.922 1371.68 216.922H1387.19C1388.11 216.917 1389.01 217.228 1389.73 217.803C1390.45 218.378 1390.96 219.183 1391.16 220.085H1384.98C1383.91 220.085 1382.88 220.511 1382.12 221.27C1381.36 222.029 1380.94 223.059 1380.94 224.133V243.135C1380.94 244.208 1381.36 245.238 1382.12 245.997C1382.88 246.756 1383.91 247.183 1384.98 247.183H1386.73Z" fill="#E15A25"/>
      <path d="M1361.33 269.221C1361.49 269.223 1361.65 269.165 1361.78 269.058C1361.9 268.951 1361.98 268.802 1362.01 268.639C1362.44 265.476 1364.29 250.523 1362.01 250.523C1359.73 250.523 1355.96 265.122 1355.13 268.538C1355.11 268.622 1355.11 268.709 1355.13 268.793C1355.15 268.877 1355.18 268.956 1355.24 269.024C1355.29 269.092 1355.36 269.147 1355.43 269.185C1355.51 269.224 1355.6 269.245 1355.68 269.246L1361.33 269.221Z" fill="#E15A25"/>
      <path d="M1361.45 275.546C1361.59 275.539 1361.73 275.584 1361.84 275.673C1361.94 275.762 1362.01 275.889 1362.03 276.027C1362.41 278.962 1364.36 294.245 1362.03 294.245C1359.7 294.245 1356.09 280.025 1355.18 276.381C1355.15 276.282 1355.15 276.179 1355.17 276.079C1355.2 275.98 1355.24 275.887 1355.3 275.807C1355.37 275.727 1355.45 275.662 1355.54 275.617C1355.63 275.572 1355.73 275.548 1355.83 275.546H1361.45Z" fill="#E15A25"/>
    </g>
      <!-- ends ship -->
      <path d="M347 185.002L347 267C347 268.697 346.585 270.377 345.778 271.944C344.972 273.512 343.79 274.936 342.3 276.136C340.81 277.336 339.041 278.287 337.094 278.937C335.147 279.586 333.06 279.92 330.953 279.92H0L0.00012207 172L331.055 172C333.162 172.011 335.246 172.356 337.188 173.015C339.13 173.674 340.891 174.635 342.372 175.842C343.853 177.05 345.023 178.48 345.817 180.052C346.611 181.623 347.013 183.306 347 185.002Z" fill="#A8A7A7"/>
      <path d="M0 207L0 284H330.953C335.204 283.986 339.275 282.618 342.28 280.194C345.286 277.771 346.982 274.488 347 271.061V207H0Z" fill="#6E767A"/>
      <path d="M308.406 112.977H290.049C282.289 112.977 275.999 119.267 275.999 127.027V161.163C275.999 168.922 282.289 175.213 290.049 175.213H308.406C316.166 175.213 322.456 168.922 322.456 161.163V127.027C322.456 119.267 316.166 112.977 308.406 112.977Z" fill="#A8A7A7"/>
    <g id="svg-drone">
      <path d="M1405.53 303.004H1397.74C1388.66 303.004 1381.3 310.363 1381.3 319.441C1381.3 328.519 1388.66 335.878 1397.74 335.878H1405.53C1414.61 335.878 1421.97 328.519 1421.97 319.441C1421.97 310.363 1414.61 303.004 1405.53 303.004Z" fill="#1C1C1C"/>
      <path d="M1439.72 300.26H1365.74C1364.23 300.26 1363 301.488 1363 303.004C1363 304.519 1364.23 305.748 1365.74 305.748H1439.72C1441.24 305.748 1442.47 304.519 1442.47 303.004C1442.47 301.488 1441.24 300.26 1439.72 300.26Z" fill="#63A4A5"/>
      <path d="M1439.72 300.26H1440.13C1440.13 289.448 1423.42 280.694 1402.79 280.694C1382.15 280.694 1365.44 289.448 1365.44 300.26H1439.72Z" fill="#F0D358"/>
      <path d="M1440.14 300.287C1440.12 302.214 1439.61 304.104 1438.65 305.775H1439.72C1440.45 305.83 1441.17 305.593 1441.73 305.117C1442.28 304.641 1442.62 303.965 1442.67 303.237C1442.73 302.509 1442.49 301.79 1442.02 301.236C1441.54 300.683 1440.86 300.342 1440.14 300.287Z" fill="#363636"/>
      <path d="M1363 303.004C1363 303.732 1363.29 304.429 1363.8 304.944C1364.32 305.459 1365.02 305.748 1365.74 305.748H1366.92C1365.97 304.076 1365.46 302.186 1365.44 300.26C1364.77 300.334 1364.15 300.656 1363.69 301.163C1363.24 301.67 1363 302.325 1363 303.004Z" fill="#363636"/>
      <path d="M1439.72 300.26H1365.44C1365.45 302.186 1365.97 304.076 1366.92 305.748H1438.65C1439.61 304.076 1440.12 302.186 1440.13 300.26H1439.72Z" fill="#363636"/>
      <path d="M1439.72 333.161H1365.74C1364.23 333.161 1363 334.39 1363 335.905C1363 337.421 1364.23 338.649 1365.74 338.649H1439.72C1441.24 338.649 1442.47 337.421 1442.47 335.905C1442.47 334.39 1441.24 333.161 1439.72 333.161Z" fill="#363636"/>
      <path d="M1373.67 336.701V300.287H1368.18V336.701H1373.67Z" fill="#363636"/>
      <path d="M1379.16 340.872V336.372C1379.16 334.856 1377.93 333.627 1376.42 333.627C1374.9 333.627 1373.67 334.856 1373.67 336.372V340.872C1373.67 342.387 1374.9 343.616 1376.42 343.616C1377.93 343.616 1379.16 342.387 1379.16 340.872Z" fill="#363636"/>
      <path d="M1430.53 340.405V335.905C1430.53 334.39 1429.3 333.161 1427.79 333.161C1426.27 333.161 1425.05 334.39 1425.05 335.905V340.405C1425.05 341.921 1426.27 343.15 1427.79 343.15C1429.3 343.15 1430.53 341.921 1430.53 340.405Z" fill="#363636"/>
      <path d="M1436.05 336.701V300.287H1430.56V336.701H1436.05Z" fill="#363636"/>
      <path d="M1367.88 311.894L1366.43 325.615C1366.39 325.982 1366.5 326.35 1366.73 326.637C1366.96 326.925 1367.3 327.11 1367.67 327.151L1382.54 328.743C1384.35 328.935 1386.17 328.399 1387.59 327.251C1389.01 326.104 1389.92 324.439 1390.11 322.624L1390.33 320.429C1390.43 319.484 1390.35 318.529 1390.08 317.617C1389.81 316.705 1389.37 315.856 1388.77 315.116C1388.18 314.377 1387.44 313.763 1386.61 313.309C1385.77 312.855 1384.86 312.57 1383.91 312.471L1369.2 310.907C1368.9 310.88 1368.6 310.967 1368.35 311.149C1368.11 311.331 1367.94 311.597 1367.88 311.894ZM1387.26 316.203C1388.09 317.224 1388.59 318.467 1388.71 319.775C1388.83 321.084 1388.56 322.399 1387.93 323.553C1387.31 324.708 1386.35 325.65 1385.19 326.261C1384.02 326.873 1382.71 327.125 1381.4 326.987C1380.09 326.848 1378.86 326.325 1377.85 325.484C1376.84 324.643 1376.1 323.521 1375.73 322.261C1375.36 321.001 1375.37 319.658 1375.76 318.404C1376.15 317.15 1376.91 316.04 1377.93 315.215C1379.3 314.11 1381.05 313.594 1382.8 313.779C1384.55 313.964 1386.15 314.836 1387.26 316.203Z" fill="#363636"/>
      <path d="M1413.35 324.188L1421.01 336.838C1421.18 337.111 1421.45 337.307 1421.76 337.384C1422.08 337.461 1422.41 337.413 1422.68 337.25L1434.4 330.17C1434.72 329.977 1434.94 329.666 1435.03 329.306C1435.12 328.946 1435.06 328.566 1434.87 328.249L1427.13 315.434C1426.66 314.659 1426.05 313.983 1425.32 313.446C1424.59 312.909 1423.76 312.521 1422.88 312.305C1422 312.088 1421.09 312.047 1420.19 312.184C1419.3 312.321 1418.44 312.633 1417.66 313.102L1415.77 314.227C1414.95 314.72 1414.24 315.369 1413.68 316.137C1413.12 316.906 1412.71 317.778 1412.49 318.704C1412.26 319.63 1412.22 320.592 1412.37 321.533C1412.52 322.474 1412.85 323.376 1413.35 324.188ZM1422.11 314.254C1423.38 314.569 1424.54 315.255 1425.42 316.225C1426.31 317.196 1426.88 318.406 1427.08 319.705C1427.28 321.003 1427.09 322.331 1426.53 323.52C1425.97 324.709 1425.07 325.706 1423.95 326.385C1422.82 327.064 1421.52 327.395 1420.21 327.335C1418.9 327.275 1417.64 326.828 1416.58 326.049C1415.52 325.271 1414.72 324.196 1414.27 322.961C1413.82 321.726 1413.75 320.387 1414.07 319.111C1414.28 318.264 1414.65 317.467 1415.17 316.765C1415.68 316.062 1416.33 315.468 1417.08 315.017C1417.83 314.566 1418.66 314.267 1419.52 314.136C1420.38 314.005 1421.26 314.045 1422.11 314.254Z" fill="#363636"/>
      <path d="M1384.82 325.642C1384.52 325.659 1384.23 325.616 1383.95 325.518C1383.67 325.42 1383.41 325.268 1383.19 325.071C1382.97 324.873 1382.79 324.634 1382.66 324.367C1382.53 324.101 1382.46 323.811 1382.44 323.516C1382.43 323.22 1382.47 322.924 1382.57 322.645C1382.67 322.366 1382.82 322.109 1383.01 321.888C1383.21 321.668 1383.45 321.489 1383.72 321.361C1383.98 321.233 1384.27 321.158 1384.57 321.142C1385.8 321.142 1386.82 321.142 1386.87 322.322C1386.93 323.502 1386.05 325.45 1384.82 325.642Z" fill="#4D4C4C"/>
      <path d="M1385.89 316.066C1386.03 316.34 1386.12 316.641 1386.14 316.951C1386.17 317.261 1386.13 317.572 1386.02 317.865C1385.92 318.158 1385.76 318.427 1385.55 318.654C1385.33 318.882 1385.08 319.063 1384.79 319.187C1384.51 319.31 1384.2 319.373 1383.89 319.372C1383.58 319.371 1383.27 319.305 1382.99 319.18C1382.7 319.054 1382.45 318.871 1382.24 318.642C1382.03 318.413 1381.87 318.143 1381.77 317.849C1381.28 316.724 1380.92 315.764 1382.07 315.27C1383.22 314.776 1385.39 314.94 1385.89 316.066Z" fill="#4D4C4C"/>
      <path d="M1376.5 320.429C1376.62 319.871 1376.94 319.378 1377.41 319.051C1377.88 318.724 1378.45 318.587 1379.02 318.667C1379.58 318.747 1380.1 319.039 1380.45 319.483C1380.81 319.927 1380.99 320.491 1380.95 321.06C1380.78 322.295 1380.59 323.282 1379.35 323.09C1378.12 322.898 1376.31 321.663 1376.5 320.429Z" fill="#4D4C4C"/>
      <path d="M1382.29 321.444C1382.84 321.444 1383.28 321.002 1383.28 320.456C1383.28 319.91 1382.84 319.468 1382.29 319.468C1381.74 319.468 1381.3 319.91 1381.3 320.456C1381.3 321.002 1381.74 321.444 1382.29 321.444Z" fill="#4D4C4C"/>
      <path d="M1423.48 325.752C1422.88 325.785 1422.3 325.579 1421.85 325.18C1421.41 324.781 1421.14 324.222 1421.1 323.625C1421.07 323.029 1421.28 322.443 1421.68 321.998C1422.08 321.553 1422.63 321.285 1423.23 321.252C1424.47 321.252 1425.48 321.252 1425.54 322.432C1425.59 323.612 1424.71 325.697 1423.48 325.752Z" fill="#4D4C4C"/>
      <path d="M1424.57 316.203C1424.72 316.477 1424.81 316.778 1424.83 317.088C1424.86 317.398 1424.81 317.709 1424.71 318.002C1424.61 318.295 1424.45 318.564 1424.24 318.792C1424.02 319.019 1423.77 319.2 1423.48 319.324C1423.2 319.447 1422.89 319.51 1422.58 319.509C1422.27 319.508 1421.96 319.443 1421.68 319.317C1421.39 319.191 1421.14 319.008 1420.93 318.779C1420.72 318.55 1420.56 318.28 1420.46 317.986C1419.96 316.861 1419.61 315.901 1420.76 315.407C1421.91 314.913 1424.05 315.05 1424.57 316.203Z" fill="#4D4C4C"/>
      <path d="M1415.16 320.538C1415.28 319.98 1415.61 319.488 1416.08 319.161C1416.54 318.834 1417.12 318.697 1417.68 318.777C1418.25 318.857 1418.76 319.149 1419.12 319.593C1419.48 320.037 1419.65 320.601 1419.61 321.169C1419.44 322.404 1419.25 323.392 1418.02 323.2C1416.78 323.008 1415 321.773 1415.16 320.538Z" fill="#4D4C4C"/>
      <path d="M1420.98 321.554C1421.53 321.554 1421.97 321.111 1421.97 320.566C1421.97 320.02 1421.53 319.578 1420.98 319.578C1420.43 319.578 1419.99 320.02 1419.99 320.566C1419.99 321.111 1420.43 321.554 1420.98 321.554Z" fill="#4D4C4C"/>
      <path d="M1402.21 329.237C1407.74 329.237 1412.23 324.753 1412.23 319.221C1412.23 313.69 1407.74 309.205 1402.21 309.205C1396.68 309.205 1392.2 313.69 1392.2 319.221C1392.2 324.753 1396.68 329.237 1402.21 329.237Z" fill="#4D4C4C"/>
      <path d="M1409.59 321.524C1410.89 317.407 1408.62 313.011 1404.5 311.706C1400.38 310.4 1395.99 312.68 1394.68 316.797C1393.37 320.914 1395.65 325.31 1399.77 326.615C1403.89 327.921 1408.28 325.641 1409.59 321.524Z" fill="#61BFB5"/>
      <path d="M1396.5 317.41C1396.74 316.66 1397.12 315.964 1397.63 315.362C1398.14 314.76 1398.76 314.264 1399.46 313.902C1400.15 313.54 1400.92 313.32 1401.7 313.253C1402.48 313.186 1403.27 313.275 1404.02 313.514" stroke="#D1D0D1" stroke-miterlimit="10"/>
      </g>
      <path d="M308.188 122.582V92.6713C308.188 90.7618 306.64 89.2138 304.73 89.2138H293.726C291.817 89.2138 290.269 90.7618 290.269 92.6713V122.582C290.269 124.491 291.817 126.039 293.726 126.039H304.73C306.64 126.039 308.188 124.491 308.188 122.582Z" fill="#A8A7A7"/>
      <path d="M318.966 96.3263L293.063 81.3712C291.409 80.4164 289.294 80.983 288.34 82.6367L278.228 100.151C277.273 101.805 277.84 103.919 279.493 104.874L305.396 119.829C307.05 120.784 309.165 120.217 310.119 118.564L320.231 101.049C321.186 99.3957 320.619 97.2811 318.966 96.3263Z" fill="#1C1C1C"/>
      <path d="M315.624 97.2816L293.903 84.7413C292.25 83.7865 290.135 84.3531 289.18 86.0068L281.566 99.196C280.611 100.85 281.177 102.964 282.831 103.919L304.552 116.459C306.205 117.414 308.32 116.848 309.275 115.194L316.89 102.005C317.844 100.351 317.278 98.2364 315.624 97.2816Z" fill="#E7F3F1"/>
      <path d="M293.343 103.483L298.776 94.7294L302.618 103.483H293.343Z" fill="#EC626E"/>
      <path d="M223.396 171.261C223.396 171.261 222.6 174.691 223.396 175.295C227.755 176.498 232.222 177.27 236.732 177.6C237.775 177.353 239.174 175.542 238.241 175.021C237.308 174.499 230.613 172.908 230.201 171.261H223.396Z" fill="#1C1C1C"/>
      <path d="M237.199 171.042C237.199 171.042 236.238 173.484 236.732 174.088C240.546 175.461 244.521 176.337 248.559 176.695C249.574 176.338 250.507 174.938 249.821 174.088C249.135 173.237 244.333 172.359 244.333 171.618L237.199 171.042Z" fill="#1C1C1C"/>
      <path d="M223.039 171.261C222.408 147.854 219.334 119.371 222.792 103.483H245.595C246.83 111.935 245.595 145.302 244.717 171.591C242.104 172.293 239.331 172.1 236.841 171.042C236.841 171.042 234.729 130.539 234.783 128.756C234.903 126.893 234.642 125.026 234.015 123.268C233.14 125.139 232.699 127.184 232.725 129.25C232.725 131.61 230.558 171.289 230.558 171.289C229.368 171.795 228.088 172.053 226.795 172.049C225.503 172.044 224.225 171.776 223.039 171.261Z" fill="#3C3829"/>
      <path d="M247.132 105.651C248.037 105.184 248.394 102.907 247.818 101.754C247.241 100.602 221.337 95.9916 220.596 94.894C220.121 91.8158 220.365 88.6693 221.31 85.7013C221.914 85.7013 222.792 103.455 222.792 103.455H245.595C245.595 103.455 246.391 85.7837 247.077 85.7013C247.763 85.619 257.257 107.517 257.669 107.928C258.08 108.34 261.126 108.175 261.318 107.462C261.51 106.748 251.906 71.9536 250.04 69.4016C248.174 66.8496 237.308 61.7182 237.308 61.7182H229.899C229.899 61.7182 216.81 68.6333 215.383 70.8834C213.956 73.1335 212.639 98.0496 213.489 99.3668C214.34 100.684 246.226 106.117 247.132 105.651Z" fill="#EC626E"/>
      <path d="M247.133 105.651C248.038 105.184 248.395 102.907 247.819 101.754C247.243 100.602 221.339 95.9916 220.598 94.894C220.123 91.8158 220.367 88.6693 221.311 85.7013C221.915 85.7013 222.793 103.455 222.793 103.455H245.596C245.596 103.455 246.392 85.7837 247.078 85.7013C247.764 85.619 257.259 107.517 257.67 107.928C258.082 108.34 261.128 108.175 261.32 107.462C261.512 106.748 251.908 71.9536 250.042 69.4016C248.176 66.8496 237.309 61.7182 237.309 61.7182H229.9C229.9 61.7182 217.442 69.1821 215.384 70.8834C212.64 73.161 211.46 98.0496 213.491 99.3668C224.587 102.051 235.816 104.148 247.133 105.651Z" fill="#EC626E"/>
      <path d="M247.901 94.0982C247.901 99.5864 247.901 105.98 246.693 106.035C244.745 106.035 235.004 105.239 233.686 105.239C232.369 105.239 223.067 107.16 221.201 106.035C219.939 105.267 221.201 97.8027 221.503 92.7536C221.503 92.1225 221.503 91.5188 221.503 90.97C221.503 89.2687 221.503 88.0613 221.119 87.8418C219.856 87.1832 212.31 75.2191 214.286 71.3774C215.576 68.9077 226.881 62.4043 228.006 62.7061C229.131 63.008 228.171 63.4744 228.336 64.2977C228.5 65.1209 232.671 67.0417 233.549 68.7156C234.224 75.1687 234.518 81.6559 234.427 88.1436C234.427 80.2956 234.427 69.7309 234.674 68.9351C235.196 67.5905 237.583 67.0692 238.187 65.9441C238.79 64.819 237.199 62.0475 238.187 61.6359C239.175 61.2243 249.163 66.4106 250.7 68.9351C252.236 71.4597 247.956 85.3995 247.791 87.0185C247.791 87.5399 247.791 89.5431 247.791 92.0951C247.901 92.6987 247.901 93.3848 247.901 94.0982Z" fill="#F0D358"/>
      <path id="svg-arm" d="M247.132 105.651C247.516 105.087 247.776 104.448 247.895 103.776C248.013 103.105 247.987 102.415 247.818 101.754C247.241 100.739 221.337 95.9917 220.596 94.894C219.856 93.7964 213.16 97.8851 213.489 99.3943C214.285 103.181 246.226 107.078 247.132 105.651Z" fill="#EC626E"/>
      <g id="svg-head">
        <path d="M239.367 54.8581C239.367 59.1662 239.367 61.7457 233.879 63.2823C229.736 64.4623 226.086 59.7974 226.086 55.4892C226.086 53.4223 226.907 51.4401 228.368 49.9786C229.83 48.5171 231.812 47.696 233.879 47.696C238.215 47.696 239.367 50.5499 239.367 54.8581Z" fill="#E3C5D1"/>
        <path d="M240.821 50.5224C243.181 54.7757 236.101 50.1383 231.848 52.5256C227.595 54.9129 227.759 63.3647 225.4 59.0839C224.264 57.0389 223.988 54.6266 224.631 52.3777C225.274 50.1289 226.785 48.2277 228.83 47.0923C230.875 45.957 233.287 45.6806 235.536 46.3239C237.785 46.9671 239.686 48.4774 240.821 50.5224Z" fill="#3C3829"/>
        <path d="M224.577 57.5198C230.93 56.3731 237.049 54.185 242.688 51.0438C242.825 50.742 242.469 50.5499 242.139 50.495C241.81 50.4401 241.591 50.9066 241.261 50.495C240.932 50.0834 237.529 41.961 229.325 44.4855C221.12 47.01 224.385 56.1203 224.248 56.4496C224.111 56.7789 224.577 57.5198 224.577 57.5198Z" fill="#EF794C"/>
      </g>
      <path d="M261.319 106.364C261.319 106.364 264.969 111.358 264.804 113.087C264.639 114.816 261.182 115.42 260.331 115.008C259.48 114.596 258.41 111.029 258.41 111.029C258.41 111.029 257.834 113.773 257.203 112.868C256.572 111.962 257.56 107.599 257.56 107.599C258.694 106.888 259.984 106.464 261.319 106.364Z" fill="#E3C5D1"/>
      <path d="M231.766 61.581L229.077 63.6939L233.934 67.0143L238.297 64.2976L236.349 61.581H231.766Z" fill="#E3C5D1"/>
      <path d="M251.467 100.505L249.313 102.659C247.417 104.556 247.417 107.631 249.313 109.528L255.6 115.814C257.497 117.711 260.572 117.711 262.469 115.814L264.623 113.661C266.519 111.764 266.519 108.688 264.623 106.792L258.336 100.505C256.439 98.6082 253.364 98.6082 251.467 100.505Z" fill="#1C1C1C"/>
      <path d="M261.101 106.117L260.36 105.376C260.36 105.376 257.616 107.791 257.616 108.12C257.616 108.45 260.36 110.864 260.36 110.864L261.156 110.069C261.652 109.527 261.923 108.817 261.913 108.082C261.903 107.348 261.612 106.645 261.101 106.117Z" fill="#F0D358"/>
      <path d="M259.754 104.8L259.013 104.059C258.746 103.79 258.427 103.576 258.076 103.43C257.725 103.283 257.349 103.208 256.969 103.208C256.589 103.208 256.213 103.283 255.862 103.43C255.511 103.576 255.192 103.79 254.925 104.059L254.129 104.855C254.959 105.851 255.877 106.769 256.873 107.599C257.339 107.681 259.754 104.8 259.754 104.8Z" fill="#F0D358"/>
      <path d="M254.187 111.413L254.927 112.154C255.195 112.424 255.514 112.638 255.865 112.784C256.215 112.93 256.592 113.005 256.972 113.005C257.352 113.005 257.728 112.93 258.079 112.784C258.43 112.638 258.748 112.424 259.016 112.154L259.73 111.441C259.73 111.441 257.425 108.697 256.985 108.697C256.546 108.697 254.187 111.413 254.187 111.413Z" fill="#F0D358"/>
      <path d="M253.553 105.267L252.839 105.98C252.57 106.248 252.356 106.566 252.21 106.917C252.063 107.268 251.988 107.644 251.988 108.024C251.988 108.404 252.063 108.781 252.21 109.131C252.356 109.482 252.57 109.801 252.839 110.069L253.58 110.81C254.56 109.962 255.477 109.045 256.324 108.065C255.469 107.067 254.542 106.132 253.553 105.267Z" fill="#F0D358"/>
      <path d="M247.133 105.651C247.133 105.651 252.621 108.587 254.267 108.175C255.914 107.764 256.078 104.251 255.557 103.483C255.036 102.715 251.331 102.138 251.331 102.138C251.331 102.138 254.075 101.178 252.978 100.684C251.88 100.19 247.791 101.782 247.791 101.782C247.263 102.999 247.037 104.327 247.133 105.651Z" fill="#E3C5D1"/>
      <path d="M247.902 94.0983C243.264 94.2904 238.737 94.4001 234.593 94.3178C230.181 94.3523 225.783 93.8267 221.504 92.7537C221.504 92.1225 221.504 91.5188 221.504 90.97C225.794 91.6934 230.133 92.0879 234.483 92.15C238.709 92.15 243.182 92.15 247.792 92.15C247.902 92.6988 247.902 93.3848 247.902 94.0983Z" fill="#3C3829"/>
      <path d="M304.071 171.042C314.786 171.042 323.472 162.356 323.472 151.641C323.472 140.927 314.786 132.241 304.071 132.241C293.357 132.241 284.671 140.927 284.671 151.641C284.671 162.356 293.357 171.042 304.071 171.042Z" fill="#A48D29"/>
      <path d="M304.073 169.395C313.879 169.395 321.828 161.446 321.828 151.641C321.828 141.836 313.879 133.887 304.073 133.887C294.268 133.887 286.319 141.836 286.319 151.641C286.319 161.446 294.268 169.395 304.073 169.395Z" fill="#F0D358"/>
      <path id="rope" d="M1368 317.41C1276.49 300.26 1277.75 349.187 1232.94 361.919C1188.13 374.652 1143.67 264.285 1086.27 305.309C1029.51 346.561 967.66 372.954 894.5 361.919C857.5 356.338 820.5 334 778 341C735.5 348 613.5 385 557.5 383C501.5 381 417 334.5 344.877 328.881C272.754 323.261 178 352.5 149.033 354.016C120.066 355.533 99.6396 348.309 99.6396 328.881C99.6396 309.453 163.082 305.968 138.386 275.042C113.003 243.238 152.682 221.642 195.682 224.853C238.681 228.064 274.299 277.923 307.036 288.872C346.002 301.906 396.163 298.806 378.162 259.017C371.522 244.363 354.755 221.45 352.203 207.84C349.652 194.229 349.816 179.466 344.877 176.695C334.971 171.207 330.471 176.695 304.073 171.207" stroke="#474747" stroke-width="2" stroke-miterlimit="10">
        <animate dur="10s" repeatCount="indefinite" attributeName="d" values="M1368 317.41C1276.49 300.26 1277.75 349.187 1232.94 361.919C1188.13 374.652 1143.67 264.285 1086.27 305.309C1029.51 346.561 967.66 372.954 894.5 361.919C857.5 356.338 820.5 334 778 341C735.5 348 613.5 385 557.5 383C501.5 381 417 334.5 344.877 328.881C272.754 323.261 178 352.5 149.033 354.016C120.066 355.533 99.6396 348.309 99.6396 328.881C99.6396 309.453 163.082 305.968 138.386 275.042C113.003 243.238 152.682 221.642 195.682 224.853C238.681 228.064 274.299 277.923 307.036 288.872C346.002 301.906 396.163 298.806 378.162 259.017C371.522 244.363 354.755 221.45 352.203 207.84C349.652 194.229 349.816 179.466 344.877 176.695C334.971 171.207 330.471 176.695 304.073 171.207;M1368 327C1277 310.5 1296.5 363.5 1244.5 372.5C1192.5 381.5 1160.5 266.296 1102.5 284C1044.5 301.704 981.66 366.535 908.5 355.5C871.5 349.919 796.5 320.5 754 327.5C711.5 334.5 610.5 380 554.5 378C498.5 376 417.36 322.119 345.237 316.5C273.114 310.881 187.967 348.984 159 350.5C130.033 352.016 98.5 341.928 98.5 322.5C98.5 303.072 162.697 305.591 138 274.666C112.617 242.862 142 217.289 185 220.5C228 223.711 271.696 267.551 304.433 278.5C343.399 291.534 392.501 293.289 374.5 253.5C367.859 238.847 355.116 207.244 352.564 193.633C350.012 180.023 349.816 179.466 344.877 176.695C334.971 171.207 330.471 176.695 304.073 171.207;M1368 317.41C1276.49 300.26 1277.75 349.187 1232.94 361.919C1188.13 374.652 1143.67 264.285 1086.27 305.309C1029.51 346.561 967.66 372.954 894.5 361.919C857.5 356.338 820.5 334 778 341C735.5 348 613.5 385 557.5 383C501.5 381 417 334.5 344.877 328.881C272.754 323.261 178 352.5 149.033 354.016C120.066 355.533 99.6396 348.309 99.6396 328.881C99.6396 309.453 163.082 305.968 138.386 275.042C113.003 243.238 152.682 221.642 195.682 224.853C238.681 228.064 274.299 277.923 307.036 288.872C346.002 301.906 396.163 298.806 378.162 259.017C371.522 244.363 354.755 221.45 352.203 207.84C349.652 194.229 349.816 179.466 344.877 176.695C334.971 171.207 330.471 176.695 304.073 171.207" fill="freeze"
      calcMode="spline"
      keySplines="0.2 0 0.8 1; 0.2 0 0.8 1">
      </path>
      
      <path d="M352.202 207.84C349.65 194.284 349.815 179.466 344.876 176.695C334.97 171.206 330.469 176.695 304.072 171.206C302.218 171.003 300.383 170.654 298.583 170.164C288.732 166.761 283.82 159.736 285.083 148.211C285.906 141.077 292.025 137.235 302.343 136.082" stroke="#787B71" stroke-width="2" stroke-miterlimit="10"/>
      <path id="svg-wave" d="M0 202C14.6286 202 14.6286 213 29.2847 213C43.9409 213 43.9133 202 58.5419 202C73.1705 202 73.1705 213 87.8266 213C102.483 213 102.455 202 117.111 202C131.767 202 131.74 213 146.396 213C161.052 213 161.025 202 175.681 202C190.337 202 190.309 213 204.966 213C219.622 213 219.594 202 234.25 202C248.906 202 248.906 213 263.535 213C278.164 213 278.164 202 292.82 202C307.476 202 307.448 213 322.104 213C336.761 213 336.733 202 351.389 202C366.045 202 366.045 213 380.674 213C395.303 213 395.303 202 409.959 202C424.615 202 424.587 213 439.243 213C453.9 213 453.872 202 468.528 202C483.184 202 483.157 213 497.813 213C512.469 213 512.441 202 527.098 202C541.754 202 541.726 213 556.382 213C571.038 213 571.011 202 585.667 202C600.323 202 600.296 213 614.952 213C629.608 213 629.58 202 644.237 202C658.893 202 658.865 213 673.521 213C688.177 213 688.15 202 702.806 202C717.462 202 717.462 213 732.091 213C746.719 213 746.719 202 761.376 202C776.032 202 776.032 213 790.66 213C805.289 213 805.289 202 819.945 202C834.601 202 834.601 213 849.23 213C863.858 213 863.858 202 878.514 202C893.171 202 893.171 213 907.799 213C922.428 213 922.455 202 937.084 202C951.713 202 951.712 213 966.369 213C981.025 213 981.025 202 995.653 202C1010.28 202 1010.31 213 1024.94 213C1039.57 213 1039.59 202 1054.22 202C1068.85 202 1068.85 213 1083.51 213C1098.16 213 1098.14 202 1112.79 202C1127.45 202 1127.42 213 1142.08 213C1156.73 213 1156.73 202 1171.36 202C1185.99 202 1185.99 213 1200.65 213C1215.3 213 1215.3 202 1229.93 202C1244.56 202 1244.59 213 1259.22 213C1273.84 213 1273.87 202 1288.5 202C1303.13 202 1303.16 213 1317.79 213C1332.41 213 1332.44 202 1347.07 202C1361.7 202 1361.73 213 1376.35 213C1390.98 213 1391.01 202 1405.64 202C1420.27 202 1420.3 213 1434.92 213C1449.55 213 1449.58 202 1464.21 202C1478.84 202 1478.87 213 1493.49 213C1508.12 213 1508.15 202 1522.78 202C1537.41 202 1537.43 213 1552.09 213C1566.75 213 1566.75 202 1581.38 202C1596 202 1596.03 213 1610.69 213C1625.34 213 1625.34 202 1640 202" stroke="#58BEBF" stroke-width="5" stroke-miterlimit="10"/>
      <path id="svg-wave-2" d="M0 202C14.6286 202 14.6286 213 29.2847 213C43.9409 213 43.9133 202 58.5419 202C73.1705 202 73.1705 213 87.8266 213C102.483 213 102.455 202 117.111 202C131.767 202 131.74 213 146.396 213C161.052 213 161.025 202 175.681 202C190.337 202 190.309 213 204.966 213C219.622 213 219.594 202 234.25 202C248.906 202 248.906 213 263.535 213C278.164 213 278.164 202 292.82 202C307.476 202 307.448 213 322.104 213C336.761 213 336.733 202 351.389 202C366.045 202 366.045 213 380.674 213C395.303 213 395.303 202 409.959 202C424.615 202 424.587 213 439.243 213C453.9 213 453.872 202 468.528 202C483.184 202 483.157 213 497.813 213C512.469 213 512.441 202 527.098 202C541.754 202 541.726 213 556.382 213C571.038 213 571.011 202 585.667 202C600.323 202 600.296 213 614.952 213C629.608 213 629.58 202 644.237 202C658.893 202 658.865 213 673.521 213C688.177 213 688.15 202 702.806 202C717.462 202 717.462 213 732.091 213C746.719 213 746.719 202 761.376 202C776.032 202 776.032 213 790.66 213C805.289 213 805.289 202 819.945 202C834.601 202 834.601 213 849.23 213C863.858 213 863.858 202 878.514 202C893.171 202 893.171 213 907.799 213C922.428 213 922.455 202 937.084 202C951.713 202 951.712 213 966.369 213C981.025 213 981.025 202 995.653 202C1010.28 202 1010.31 213 1024.94 213C1039.57 213 1039.59 202 1054.22 202C1068.85 202 1068.85 213 1083.51 213C1098.16 213 1098.14 202 1112.79 202C1127.45 202 1127.42 213 1142.08 213C1156.73 213 1156.73 202 1171.36 202C1185.99 202 1185.99 213 1200.65 213C1215.3 213 1215.3 202 1229.93 202C1244.56 202 1244.59 213 1259.22 213C1273.84 213 1273.87 202 1288.5 202C1303.13 202 1303.16 213 1317.79 213C1332.41 213 1332.44 202 1347.07 202C1361.7 202 1361.73 213 1376.35 213C1390.98 213 1391.01 202 1405.64 202C1420.27 202 1420.3 213 1434.92 213C1449.55 213 1449.58 202 1464.21 202C1478.84 202 1478.87 213 1493.49 213C1508.12 213 1508.15 202 1522.78 202C1537.41 202 1537.43 213 1552.09 213C1566.75 213 1566.75 202 1581.38 202C1596 202 1596.03 213 1610.69 213C1625.34 213 1625.34 202 1640 202" stroke="#58BEBF" stroke-width="5" stroke-miterlimit="10"/>
      </svg>