<svg width="1640" height="839" viewBox="0 0 1640 839" fill="none" xmlns="http://www.w3.org/2000/svg">
 <path id="svg-wave" d="M0 202C14.6286 202 14.6286 213 29.2847 213C43.9409 213 43.9133 202 58.5419 202C73.1705 202 73.1705 213 87.8266 213C102.483 213 102.455 202 117.111 202C131.767 202 131.74 213 146.396 213C161.052 213 161.025 202 175.681 202C190.337 202 190.309 213 204.966 213C219.622 213 219.594 202 234.25 202C248.906 202 248.906 213 263.535 213C278.164 213 278.164 202 292.82 202C307.476 202 307.448 213 322.104 213C336.761 213 336.733 202 351.389 202C366.045 202 366.045 213 380.674 213C395.303 213 395.303 202 409.959 202C424.615 202 424.587 213 439.243 213C453.9 213 453.872 202 468.528 202C483.184 202 483.157 213 497.813 213C512.469 213 512.441 202 527.098 202C541.754 202 541.726 213 556.382 213C571.038 213 571.011 202 585.667 202C600.323 202 600.296 213 614.952 213C629.608 213 629.58 202 644.237 202C658.893 202 658.865 213 673.521 213C688.177 213 688.15 202 702.806 202C717.462 202 717.462 213 732.091 213C746.719 213 746.719 202 761.376 202C776.032 202 776.032 213 790.66 213C805.289 213 805.289 202 819.945 202C834.601 202 834.601 213 849.23 213C863.858 213 863.858 202 878.514 202C893.171 202 893.171 213 907.799 213C922.428 213 922.455 202 937.084 202C951.713 202 951.712 213 966.369 213C981.025 213 981.025 202 995.653 202C1010.28 202 1010.31 213 1024.94 213C1039.57 213 1039.59 202 1054.22 202C1068.85 202 1068.85 213 1083.51 213C1098.16 213 1098.14 202 1112.79 202C1127.45 202 1127.42 213 1142.08 213C1156.73 213 1156.73 202 1171.36 202C1185.99 202 1185.99 213 1200.65 213C1215.3 213 1215.3 202 1229.93 202C1244.56 202 1244.59 213 1259.22 213C1273.84 213 1273.87 202 1288.5 202C1303.13 202 1303.16 213 1317.79 213C1332.41 213 1332.44 202 1347.07 202C1361.7 202 1361.73 213 1376.35 213C1390.98 213 1391.01 202 1405.64 202C1420.27 202 1420.3 213 1434.92 213C1449.55 213 1449.58 202 1464.21 202C1478.84 202 1478.87 213 1493.49 213C1508.12 213 1508.15 202 1522.78 202C1537.41 202 1537.43 213 1552.09 213C1566.75 213 1566.75 202 1581.38 202C1596 202 1596.03 213 1610.69 213C1625.34 213 1625.34 202 1640 202" stroke="#58BEBF" stroke-width="5" stroke-miterlimit="10"/>
</svg>
