<svg width="1640" height="839" viewBox="0 0 1640 839" fill="none" xmlns="http://www.w3.org/2000/svg">
<g clip-path="url(#clip0)">
<path d="M0 213C14.6286 213 14.6286 202 29.2847 202C43.9409 202 43.9133 213 58.5419 213C73.1705 213 73.1705 202 87.8266 202C102.483 202 102.455 213 117.111 213C131.767 213 131.74 202 146.396 202C161.052 202 161.025 213 175.681 213C190.337 213 190.309 202 204.966 202C219.622 202 219.594 213 234.25 213C248.906 213 248.906 202 263.535 202C278.164 202 278.164 213 292.82 213C307.476 213 307.448 202 322.104 202C336.761 202 336.733 213 351.389 213C366.045 213 366.045 202 380.674 202C395.303 202 395.303 213 409.959 213C424.615 213 424.587 202 439.243 202C453.9 202 453.872 213 468.528 213C483.184 213 483.157 202 497.813 202C512.469 202 512.441 213 527.098 213C541.754 213 541.726 202 556.382 202C571.038 202 571.011 213 585.667 213C600.323 213 600.296 202 614.952 202C629.608 202 629.58 213 644.237 213C658.893 213 658.865 202 673.521 202C688.177 202 688.15 213 702.806 213C717.462 213 717.462 202 732.091 202C746.719 202 746.719 213 761.376 213C776.032 213 776.032 202 790.66 202C805.289 202 805.289 213 819.945 213C834.601 213 834.601 202 849.23 202C863.858 202 863.858 213 878.514 213C893.171 213 893.171 202 907.799 202C922.428 202 922.455 213 937.084 213C951.713 213 951.712 202 966.369 202C981.025 202 981.025 213 995.653 213C1010.28 213 1010.31 202 1024.94 202C1039.57 202 1039.59 213 1054.22 213C1068.85 213 1068.85 202 1083.51 202C1098.16 202 1098.14 213 1112.79 213C1127.45 213 1127.42 202 1142.08 202C1156.73 202 1156.73 213 1171.36 213C1185.99 213 1185.99 202 1200.65 202C1215.3 202 1215.3 213 1229.93 213C1244.56 213 1244.59 202 1259.22 202C1273.84 202 1273.87 213 1288.5 213C1303.13 213 1303.16 202 1317.79 202C1332.41 202 1332.44 213 1347.07 213C1361.7 213 1361.73 202 1376.35 202C1390.98 202 1391.01 213 1405.64 213C1420.27 213 1420.3 202 1434.92 202C1449.55 202 1449.58 213 1464.21 213C1478.84 213 1478.87 202 1493.49 202C1508.12 202 1508.15 213 1522.78 213C1537.41 213 1537.43 202 1552.09 202C1566.75 202 1566.75 213 1581.38 213C1596 213 1596.03 202 1610.69 202C1625.34 202 1625.34 213 1640 213" stroke="#58BEBF" stroke-width="5" stroke-miterlimit="10"/>
</g>
<defs>
<clipPath id="clip0">
<rect width="1640" height="839" fill="white"/>
</clipPath>
</defs>
</svg>
