<svg width="49" height="49" viewBox="0 0 49 49" fill="none" xmlns="http://www.w3.org/2000/svg">
<rect x="1.5" y="1.5" width="45.7544" height="45.7544" rx="22.8772" stroke="white" stroke-opacity="0.3" stroke-width="3"/>
<path d="M28.8325 16.4894C29.4183 15.9036 29.4183 14.9538 28.8325 14.3681C28.2467 13.7823 27.2969 13.7823 26.7111 14.3681L28.8325 16.4894ZM18.5146 24.6859L17.454 23.6252L16.3933 24.6859L17.454 25.7465L18.5146 24.6859ZM26.7111 35.0037C27.2969 35.5895 28.2467 35.5895 28.8325 35.0037C29.4183 34.4179 29.4183 33.4681 28.8325 32.8824L26.7111 35.0037ZM26.7111 14.3681L17.454 23.6252L19.5753 25.7465L28.8325 16.4894L26.7111 14.3681ZM17.454 25.7465L26.7111 35.0037L28.8325 32.8824L19.5753 23.6252L17.454 25.7465Z" fill="white" fill-opacity="0.3"/>
</svg>
