<svg width="283" height="225" viewBox="0 0 283 225" fill="none" xmlns="http://www.w3.org/2000/svg">
<path d="M166.349 79.5564H108.766C84.6621 79.5564 65.1221 99.0965 65.1221 123.2V153.02C65.1221 177.124 84.6621 196.664 108.766 196.664H166.349C190.452 196.664 209.992 177.124 209.992 153.02V123.2C209.992 99.0965 190.452 79.5564 166.349 79.5564Z" fill="#1C1C1C"/>
<path d="M275.726 69.7695H7.27399C3.25667 69.7695 0 73.0261 0 77.0434V81.9943C0 86.0116 3.25667 89.2684 7.27399 89.2684H275.726C279.743 89.2684 283 86.0116 283 81.9943V77.0434C283 73.0261 279.743 69.7695 275.726 69.7695Z" fill="#363636"/>
<path d="M273.251 69.655C273.733 69.6192 274.217 69.6192 274.698 69.655C274.698 31.1905 215.173 0 141.71 0C68.2465 0 8.72168 31.2666 8.72168 69.655H273.251Z" fill="#F0D358"/>
<path d="M274.662 69.8835C274.581 76.691 272.759 83.3646 269.368 89.2683H273.177C275.63 89.2581 277.989 88.3234 279.783 86.6509C281.578 84.9784 282.676 82.691 282.858 80.2448C283.041 77.7985 282.295 75.3731 280.768 73.4527C279.242 71.5323 277.048 70.2579 274.624 69.8835H274.662Z" fill="#363636"/>
<path d="M0 79.5189C0 80.7992 0.252183 82.0667 0.742137 83.2496C1.23209 84.4325 1.95022 85.5074 2.85554 86.4127C3.76085 87.318 4.83563 88.0361 6.01848 88.5261C7.20134 89.016 8.46912 89.2683 9.74943 89.2683H13.9386C10.5419 83.3534 8.71927 76.6659 8.645 69.8455C6.26824 70.1164 4.07405 71.2519 2.47999 73.0355C0.88594 74.8192 0.00329058 77.1267 0 79.5189Z" fill="#363636"/>
<path d="M273.251 69.6553H8.72168C8.79595 76.4757 10.6186 83.163 14.0153 89.0779H269.405C272.795 83.1742 274.618 76.5009 274.698 69.6934C274.217 69.6448 273.734 69.6321 273.251 69.6553Z" fill="#363636"/>
<path d="M275.726 186.915H7.27399C3.25667 186.915 0 190.171 0 194.189V199.14C0 203.157 3.25667 206.413 7.27399 206.413H275.726C279.743 206.413 283 203.157 283 199.14V194.189C283 190.171 279.743 186.915 275.726 186.915Z" fill="#363636"/>
<path d="M38.0469 199.559L38.0469 69.8835H18.548L18.548 199.559H38.0469Z" fill="#363636"/>
<path d="M57.5459 216.963V195.903C57.5459 191.885 54.2891 188.629 50.2718 188.629H45.3209C41.3036 188.629 38.0471 191.885 38.0471 195.903V216.963C38.0471 220.98 41.3036 224.237 45.3209 224.237H50.2718C54.2891 224.237 57.5459 220.98 57.5459 216.963Z" fill="#363636"/>
<path d="M240.5 215.249V194.189C240.5 190.171 237.243 186.915 233.226 186.915H228.275C224.258 186.915 221.001 190.171 221.001 194.189V215.249C221.001 219.266 224.258 222.523 228.275 222.523H233.226C237.243 222.523 240.5 219.266 240.5 215.249Z" fill="#363636"/>
<path d="M260.074 199.559V69.8835H240.575V199.559H260.074Z" fill="#363636"/>
<path d="M124.684 120.878L90.1045 86.3739C89.6446 85.9133 89.0985 85.5479 88.4973 85.2986C87.8961 85.0493 87.2516 84.9209 86.6008 84.9209C85.9499 84.9209 85.3055 85.0493 84.7043 85.2986C84.1031 85.5479 83.5569 85.9133 83.0971 86.3739L45.3942 124.077C43.1154 126.354 41.3076 129.059 40.0742 132.035C38.8409 135.012 38.2061 138.202 38.2061 141.424C38.2061 144.646 38.8409 147.836 40.0742 150.813C41.3076 153.789 43.1154 156.493 45.3942 158.771L50.9164 164.293C55.7428 169.109 62.2828 171.814 69.1013 171.814C75.9198 171.814 82.4598 169.109 87.2863 164.293L124.57 127.009C125.397 126.211 125.874 125.117 125.895 123.967C125.917 122.818 125.481 121.707 124.684 120.878ZM69.3869 164.864C64.7094 164.864 60.1369 163.477 56.2477 160.879C52.3585 158.28 49.3272 154.586 47.5372 150.265C45.7472 145.943 45.2789 141.188 46.1914 136.601C47.1039 132.013 49.3564 127.799 52.6639 124.491C55.9714 121.184 60.1854 118.931 64.7731 118.019C69.3607 117.106 74.1159 117.575 78.4374 119.365C82.7589 121.155 86.4525 124.186 89.0512 128.075C91.6499 131.964 93.0369 136.537 93.0369 141.214C93.0369 147.487 90.5452 153.502 86.11 157.938C81.6748 162.373 75.6593 164.864 69.3869 164.864Z" fill="#363636"/>
<path d="M218.333 169.663L264.376 144.033C265.381 143.472 266.121 142.535 266.435 141.428C266.75 140.321 266.612 139.135 266.052 138.13L242.44 95.4762C242.122 94.9084 241.696 94.4086 241.186 94.0055C240.675 93.6025 240.09 93.304 239.464 93.1271C238.838 92.9503 238.183 92.8985 237.537 92.9749C236.891 93.0512 236.267 93.2542 235.699 93.572L189.123 119.469C186.306 121.034 183.826 123.138 181.823 125.662C179.821 128.185 178.335 131.079 177.45 134.177C176.566 137.275 176.301 140.517 176.67 143.718C177.039 146.918 178.036 150.015 179.602 152.83L183.41 159.685C186.73 165.627 192.268 170.012 198.812 171.882C205.356 173.752 212.375 172.954 218.333 169.663ZM184.057 137.216C185.337 132.716 187.922 128.696 191.486 125.666C195.05 122.635 199.433 120.73 204.081 120.191C208.728 119.651 213.43 120.503 217.594 122.637C221.757 124.771 225.194 128.092 227.47 132.179C229.745 136.267 230.757 140.938 230.378 145.601C229.999 150.264 228.245 154.709 225.339 158.375C222.432 162.042 218.504 164.763 214.05 166.196C209.597 167.629 204.818 167.709 200.319 166.426C197.333 165.571 194.545 164.136 192.114 162.203C189.683 160.271 187.656 157.878 186.15 155.162C184.643 152.446 183.686 149.46 183.334 146.374C182.982 143.288 183.24 140.163 184.096 137.178L184.057 137.216Z" fill="#363636"/>
<path d="M77.6511 160.142C76.6009 160.197 75.55 160.045 74.5587 159.693C73.5673 159.342 72.6548 158.8 71.8733 158.096C71.0917 157.392 70.4564 156.541 70.0037 155.592C69.551 154.643 69.2896 153.614 69.2346 152.563C69.1796 151.513 69.332 150.462 69.6831 149.471C70.0342 148.48 70.5771 147.567 71.2808 146.786C71.9846 146.004 72.8354 145.369 73.7846 144.916C74.7339 144.463 75.763 144.202 76.8133 144.147C81.231 143.918 84.8108 143.918 85.0393 148.336C85.2678 152.754 82.0688 159.876 77.6511 160.142Z" fill="#4D4C4C"/>
<path d="M81.5013 126.057C82.3498 128.002 82.3911 130.203 81.6162 132.178C80.8412 134.153 79.3136 135.739 77.3693 136.587C75.4249 137.436 73.2232 137.477 71.2484 136.702C69.2736 135.927 67.6876 134.4 66.8391 132.455C65.0873 128.418 63.8305 125.029 67.8674 123.277C71.9043 121.525 79.7114 122.02 81.5013 126.057Z" fill="#4D4C4C"/>
<path d="M48.0255 141.595C48.1756 140.555 48.529 139.554 49.0657 138.651C49.6024 137.747 50.3119 136.958 51.1535 136.328C51.9952 135.699 52.9526 135.241 53.9711 134.982C54.9896 134.722 56.0492 134.666 57.0895 134.816C58.1297 134.966 59.1302 135.32 60.0339 135.856C60.9375 136.393 61.7266 137.102 62.3561 137.944C62.9856 138.786 63.4431 139.743 63.7026 140.762C63.9621 141.78 64.0184 142.84 63.8684 143.88C63.259 148.26 62.5354 151.764 58.1939 151.154C53.8524 150.545 47.3781 145.822 48.0255 141.595Z" fill="#4D4C4C"/>
<path d="M68.7019 145.251C70.679 145.251 72.2818 143.649 72.2818 141.671C72.2818 139.694 70.679 138.092 68.7019 138.092C66.7248 138.092 65.1221 139.694 65.1221 141.671C65.1221 143.649 66.7248 145.251 68.7019 145.251Z" fill="#4D4C4C"/>
<path d="M215.363 160.561C213.242 160.672 211.164 159.936 209.585 158.515C208.007 157.093 207.058 155.103 206.947 152.982C206.835 150.861 207.571 148.783 208.993 147.204C210.414 145.626 212.404 144.677 214.525 144.566C218.943 144.337 222.523 144.337 222.751 148.755C222.98 153.173 219.781 160.332 215.363 160.561Z" fill="#4D4C4C"/>
<path d="M219.209 126.514C219.627 127.489 219.848 128.537 219.861 129.598C219.874 130.659 219.677 131.711 219.283 132.696C218.889 133.681 218.304 134.579 217.563 135.338C216.822 136.097 215.938 136.703 214.963 137.12C213.988 137.538 212.94 137.759 211.879 137.772C210.818 137.784 209.765 137.588 208.78 137.194C207.796 136.799 206.898 136.215 206.139 135.474C205.38 134.732 204.774 133.849 204.357 132.874C202.605 128.837 201.348 125.447 205.385 123.696C209.422 121.944 217.458 122.439 219.209 126.514Z" fill="#4D4C4C"/>
<path d="M185.734 142.014C185.884 140.974 186.237 139.974 186.774 139.07C187.311 138.166 188.02 137.377 188.862 136.748C189.704 136.118 190.661 135.661 191.679 135.401C192.698 135.142 193.758 135.085 194.798 135.235C195.838 135.386 196.839 135.739 197.742 136.276C198.646 136.813 199.435 137.522 200.064 138.363C200.694 139.205 201.151 140.163 201.411 141.181C201.67 142.2 201.727 143.259 201.577 144.299C200.967 148.679 200.244 152.183 195.902 151.574C191.561 150.964 185.315 146.394 185.734 142.014Z" fill="#4D4C4C"/>
<path d="M206.45 145.67C208.427 145.67 210.03 144.067 210.03 142.09C210.03 140.113 208.427 138.51 206.45 138.51C204.473 138.51 202.87 140.113 202.87 142.09C202.87 144.067 204.473 145.67 206.45 145.67Z" fill="#4D4C4C"/>
<path d="M139.613 172.862C159.279 172.862 175.221 156.919 175.221 137.253C175.221 117.588 159.279 101.645 139.613 101.645C119.947 101.645 104.005 117.588 104.005 137.253C104.005 156.919 119.947 172.862 139.613 172.862Z" fill="#4D4C4C"/>
<path d="M166.159 145.552C170.806 130.896 162.691 115.248 148.035 110.601C133.378 105.955 117.73 114.069 113.084 128.726C108.438 143.382 116.552 159.03 131.208 163.676C145.865 168.323 161.513 160.208 166.159 145.552Z" fill="#61BFB5"/>
<path d="M119.316 130.818C121.023 125.451 124.786 120.979 129.783 118.381C134.779 115.782 140.601 115.27 145.975 116.955" stroke="#D1D0D1" stroke-miterlimit="10"/>
</svg>
