<svg width="106" height="104" viewBox="0 0 106 104" fill="none" xmlns="http://www.w3.org/2000/svg">
<path d="M19.8711 31.4651C36.6851 -7.23868 91.251 -5.21986 105.902 31.4651C97.4879 31.794 89.2401 33.9075 81.7049 37.6658C80.721 38.1469 79.6054 38.2889 78.5324 38.0696C68.5642 35.9035 58.247 35.9035 48.2788 38.0696C47.4808 38.2475 46.645 38.1133 45.9428 37.6946C37.9613 33.3353 28.9612 31.1849 19.8711 31.4651Z" fill="#EF794C"/>
<path d="M39.1066 45.9139L39.9718 46.4619L40.9525 46.1158C45.241 44.6707 49.7236 43.8831 54.2479 43.7797H54.6228V59.0363C54.6228 59.587 54.8416 60.1152 55.231 60.5046C55.6204 60.894 56.1485 61.1128 56.6992 61.1128C57.2476 61.1054 57.7716 60.8842 58.1594 60.4964C58.5472 60.1086 58.7684 59.5847 58.7758 59.0363V43.7221H59.1508C63.6716 43.8595 68.1492 44.6462 72.4462 46.0581L73.4268 46.4042L74.292 45.8562C81.863 41.4775 90.5725 39.4683 99.2966 40.0882H101.921L101.46 37.4925C98.316 20.1883 79.4831 8.4214 63.3614 6.08533C62.0417 5.89991 60.7134 5.78436 59.3815 5.73921H58.7758V2.07651C58.7758 1.52579 58.5571 0.997597 58.1677 0.608176C57.7782 0.218755 57.25 0 56.6992 0C56.1508 0.00746229 55.6271 0.228634 55.2393 0.61645C54.8514 1.00426 54.6303 1.52811 54.6228 2.07651V5.73921H54.0748C52.7141 5.78066 51.3566 5.89622 50.0084 6.08533C33.8578 8.50792 15.0249 20.3036 11.8813 37.5214L11.4199 40.117H14.0443C22.7906 39.4942 31.5222 41.5138 39.1066 45.9139ZM50.6428 10.2672C51.8567 10.0964 53.0799 10 54.3056 9.97876C55.9484 9.8921 57.5944 9.8921 59.2372 9.97876C60.4339 10.0035 61.6281 10.0998 62.8134 10.2672C76.6856 12.2572 92.6922 21.8033 96.8163 35.7621C88.4684 35.6204 80.2342 37.7113 72.9653 41.8186C68.572 40.4486 64.0105 39.6916 59.4102 39.569H54.1037C49.4882 39.7295 44.9127 40.4856 40.4909 41.8186C33.222 37.7113 24.9879 35.6204 16.64 35.7621C20.62 21.8033 36.6552 12.3148 50.6428 10.2672Z" fill="white"/>
<path d="M92.3757 66.9673L66.4194 77.8113C65.9282 78.0334 65.5428 78.4378 65.3444 78.939C65.146 79.4401 65.1502 79.9988 65.3562 80.4969C65.5621 80.995 65.9538 81.3935 66.4482 81.6082C66.9427 81.8228 67.5012 81.8368 68.0057 81.6471L93.9621 70.8031C94.4951 70.5748 95.0881 70.5273 95.6506 70.6679C96.2131 70.8085 96.714 71.1295 97.0767 71.5818C97.311 71.8688 97.4811 72.2026 97.5756 72.5607C97.6701 72.9189 97.6868 73.2931 97.6247 73.6583C97.5688 74.0316 97.4313 74.388 97.222 74.702C97.0126 75.0161 96.7365 75.2801 96.4135 75.4753C85.1369 82.8296 59.5265 97.3363 58.3152 98.0284C54.9699 99.9159 51.0358 100.472 47.2983 99.5858L26.9657 97.0767L19.698 96.1827V67.9479C20.8517 67.9479 21.8898 67.9479 22.3225 67.9479H22.5821C32.2958 67.7522 41.9928 68.8383 51.4225 71.178L55.2295 71.9567C55.896 72.0856 56.4957 72.4455 56.923 72.9731C57.3503 73.5006 57.5779 74.162 57.5655 74.8408C57.5821 74.9555 57.5821 75.0721 57.5655 75.1868C57.4745 75.8141 57.1925 76.3982 56.7579 76.8596C56.2161 77.3818 55.4916 77.6716 54.739 77.6671H35.0987C34.548 77.6671 34.0199 77.8859 33.6305 78.2753C33.2411 78.6648 33.0223 79.1929 33.0223 79.7436C33.0298 80.292 33.2509 80.8159 33.6388 81.2037C34.0266 81.5915 34.5503 81.8127 35.0987 81.8201H54.8256C56.542 81.827 58.2016 81.2064 59.4923 80.075C60.783 78.9437 61.6158 77.3796 61.8338 75.6771C61.8572 75.3603 61.8572 75.0422 61.8338 74.7254C61.8338 73.0792 61.2567 71.485 60.2028 70.2204C59.1489 68.9557 57.685 68.1006 56.0658 67.8037L52.3165 67.025C42.5162 64.6134 32.4418 63.4984 22.3513 63.7084H22.1494H19.6114C19.4973 63.266 19.2403 62.8737 18.8806 62.5921C18.5208 62.3106 18.0783 62.1555 17.6214 62.151H2.07643C1.80373 62.151 1.53377 62.2047 1.28184 62.309C1.0299 62.4134 0.800998 62.5664 0.608176 62.7592C0.415355 62.952 0.262427 63.1809 0.158073 63.4328C0.0537187 63.6848 0 63.9548 0 64.2275V99.3839C0 99.6566 0.0537187 99.9267 0.158073 100.179C0.262427 100.431 0.415355 100.659 0.608176 100.852C0.800998 101.045 1.0299 101.198 1.28184 101.302C1.53377 101.407 1.80373 101.46 2.07643 101.46H17.6214C18.0195 101.453 18.4078 101.336 18.7436 101.123C19.0795 100.909 19.3499 100.607 19.525 100.249L26.4755 101.114L46.6638 103.566C48.1299 103.832 49.6153 103.976 51.1051 103.998C54.3752 104.041 57.5954 103.194 60.4207 101.547C60.6803 101.547 87.2134 86.4346 98.7784 78.8784C99.5775 78.3563 100.258 77.6726 100.777 76.8714C101.296 76.0701 101.641 75.1691 101.791 74.2263C101.94 73.2836 101.89 72.32 101.645 71.3976C101.399 70.4752 100.963 69.6144 100.365 68.8708C99.4052 67.7498 98.1151 66.9617 96.6798 66.6197C95.2445 66.2777 93.7376 66.3994 92.3757 66.9673ZM15.4873 97.5382H3.95112V66.5636H15.4873V97.5382Z" fill="white"/>
</svg>
