<svg width="102" height="104" viewBox="0 0 102 104" fill="none" xmlns="http://www.w3.org/2000/svg">
<path d="M70.2227 39.9288C65.8251 42.9915 62.0459 46.8576 59.0841 51.3238C58.9584 51.5059 58.7902 51.6548 58.5942 51.7577C58.3982 51.8605 58.1802 51.9142 57.9588 51.9142C57.7375 51.9142 57.5195 51.8605 57.3235 51.7577C57.1275 51.6548 56.9593 51.5059 56.8336 51.3238C53.6251 46.9781 49.7843 43.1372 45.4386 39.9288C45.233 39.7907 45.0645 39.6041 44.9479 39.3855C44.8314 39.1669 44.7705 38.923 44.7705 38.6753C44.7705 38.4276 44.8314 38.1837 44.9479 37.9652C45.0645 37.7466 45.233 37.56 45.4386 37.4219C50.212 34.2783 54.2378 30.126 57.2324 25.2577C57.3012 25.1458 57.3976 25.0534 57.5123 24.9893C57.627 24.9252 57.7562 24.8915 57.8876 24.8915C58.019 24.8915 58.1482 24.9252 58.2629 24.9893C58.3776 25.0534 58.474 25.1458 58.5428 25.2577C61.6767 29.8784 65.6017 33.9096 70.1372 37.1655C70.355 37.321 70.5339 37.5247 70.66 37.7606C70.7861 37.9966 70.856 38.2585 70.8643 38.526C70.8726 38.7934 70.8189 39.0592 70.7076 39.3025C70.5963 39.5458 70.4304 39.7601 70.2227 39.9288Z" fill="#EF794C"/>
<path d="M70.2212 71.4644C70.7006 71.6558 71.2153 71.7432 71.731 71.7208C72.7511 71.6837 73.7161 71.2483 74.419 70.5081C75.122 69.7679 75.5069 68.7818 75.4913 67.7611C75.4378 64.6827 76.3832 61.6698 78.1858 59.1739C79.9884 56.6779 82.5513 54.8332 85.4904 53.9162C85.9338 53.7844 86.349 53.5719 86.7153 53.2895C87.1227 52.9882 87.466 52.6088 87.7252 52.1735C87.9844 51.7383 88.1543 51.2557 88.2252 50.7541C88.3087 50.2332 88.2889 49.7008 88.1667 49.1876C88.0445 48.6744 87.8223 48.1903 87.513 47.7629C85.6638 45.2974 84.6642 42.2986 84.6642 39.2167C84.6642 36.1348 85.6638 33.136 87.513 30.6704L87.9688 30.0722L88.1682 29.4455C88.4731 28.4519 88.3752 27.3783 87.8955 26.4563C87.4158 25.5343 86.593 24.8378 85.6044 24.5172C82.6747 23.6029 80.1187 21.7668 78.317 19.2823C76.5153 16.7979 75.5641 13.798 75.6053 10.7293C75.6062 10.2755 75.539 9.82413 75.4058 9.39034C75.0492 8.39917 74.3251 7.58314 73.3833 7.11134C72.4873 6.70494 71.4727 6.64407 70.5345 6.94042C67.6143 7.94772 64.4457 7.97839 61.5066 7.02779C58.5674 6.07719 56.017 4.19682 54.2397 1.67023C53.9713 1.3149 53.655 0.998561 53.2997 0.730183C52.8775 0.429237 52.3999 0.214728 51.8946 0.0990656C51.3892 -0.0165965 50.866 -0.0311266 50.355 0.0562492C49.844 0.143625 49.3553 0.331209 48.9171 0.60821C48.4789 0.885212 48.0997 1.24612 47.8015 1.67023C46.4832 3.54125 44.7334 5.06703 42.7002 6.1183C40.6671 7.16958 38.4106 7.71542 36.1217 7.70959C34.5696 7.7154 33.028 7.45524 31.5637 6.94042C30.8592 6.70886 30.1047 6.67404 29.3818 6.8397C28.6589 7.00537 27.995 7.36524 27.4615 7.88051C27.0903 8.25471 26.7982 8.69973 26.6024 9.18912C26.4067 9.67851 26.3113 10.2023 26.3221 10.7293C26.3632 13.798 25.4121 16.7979 23.6103 19.2823C21.8086 21.7668 19.2526 23.6029 16.323 24.5172C15.7106 24.6954 15.1504 25.0188 14.6899 25.4601C14.2295 25.9013 13.8824 26.4472 13.6782 27.0514C13.474 27.6555 13.4187 28.3001 13.5172 28.9302C13.6156 29.5603 13.8647 30.1573 14.2433 30.6704C16.0925 33.136 17.0921 36.1348 17.0921 39.2167C17.0921 42.2986 16.0925 45.2974 14.2433 47.7629C13.9864 48.1096 13.7846 48.494 13.6451 48.9024C13.3488 49.915 13.4402 51.0017 13.9015 51.9506C14.3891 52.8548 15.2048 53.5378 16.1805 53.8592C19.1055 54.7721 21.658 56.6039 23.4593 59.0826C25.2606 61.5613 26.2145 64.5547 26.1796 67.6186C26.1407 68.1023 26.2088 68.5886 26.379 69.043C26.7356 70.0342 27.4598 70.8502 28.4016 71.322C29.2976 71.7284 30.3122 71.7893 31.2503 71.4929C32.7567 70.9891 34.334 70.7295 35.9223 70.7237C38.2183 70.7055 40.4846 71.2426 42.5282 72.2892C44.5718 73.3358 46.3321 74.8609 47.6591 76.7346C47.9278 77.0897 48.2441 77.406 48.5992 77.6747C49.2699 78.136 50.0642 78.3842 50.8782 78.3869C51.1056 78.4085 51.3345 78.4085 51.5619 78.3869C52.0702 78.3057 52.5569 78.1225 52.9926 77.8483C53.4283 77.5741 53.8041 77.2147 54.0973 76.7916C55.8569 74.2904 58.3748 72.4219 61.2785 71.4625C64.1823 70.5031 67.3178 70.5038 70.2212 71.4644ZM50.7642 74.1707C49.0656 71.8222 46.8354 69.9087 44.2559 68.5868C41.6764 67.2648 38.8208 66.5719 35.9223 66.5646C33.9843 66.5617 32.0592 66.8793 30.2248 67.5047C30.2431 63.6282 29.0272 59.8466 26.7533 56.7071C24.4793 53.5676 21.2653 51.2332 17.5764 50.0419C19.8687 46.898 21.1038 43.1075 21.1038 39.2167C21.1038 35.3258 19.8687 31.5354 17.5764 28.3914C21.2665 27.1946 24.483 24.8605 26.7654 21.7236C29.0477 18.5867 30.2786 14.8079 30.2818 10.9286C32.122 11.5238 34.0452 11.822 35.9793 11.8118C38.8804 11.8086 41.7403 11.1237 44.3282 9.81246C46.9162 8.50117 49.1598 6.60012 50.8782 4.2626C52.601 6.60233 54.8495 8.50452 57.4424 9.81581C60.0352 11.1271 62.9 11.8108 65.8056 11.8118C67.7452 11.8347 69.6737 11.5165 71.5031 10.8717C71.5047 14.7394 72.7249 18.5082 74.9904 21.643C77.2558 24.7778 80.4512 27.1191 84.123 28.3345C81.839 31.4818 80.6091 35.2709 80.6091 39.1597C80.6091 43.0484 81.839 46.8376 84.123 49.9849C80.4388 51.184 77.2298 53.5203 74.9571 56.658C72.6844 59.7958 71.4651 63.5734 71.4746 67.4477C67.7631 66.2228 63.758 66.2113 60.0396 67.4149C56.3211 68.6185 53.0824 70.9748 50.7927 74.1422L50.7642 74.1707Z" fill="white"/>
<path d="M67.8575 36.3395C61.4211 33.6495 56.3037 28.5321 53.6138 22.0958C53.3829 21.5297 52.9886 21.0453 52.4812 20.7043C51.9738 20.3633 51.3763 20.1812 50.765 20.1812C50.1537 20.1812 49.5563 20.3633 49.0489 20.7043C48.5415 21.0453 48.1472 21.5297 47.9163 22.0958C45.2032 28.5165 40.0933 33.6264 33.6726 36.3395C33.1031 36.5647 32.6155 36.9578 32.2746 37.4666C31.9337 37.9754 31.7557 38.5758 31.7639 39.1882C31.7588 39.7924 31.9316 40.3847 32.2609 40.8913C32.5902 41.3979 33.0613 41.7964 33.6156 42.037C39.9659 44.8537 45.0426 49.9303 47.8593 56.2807C48.0999 56.8349 48.4983 57.3061 49.0049 57.6354C49.5115 57.9647 50.1039 58.1375 50.7081 58.1323C51.3188 58.1706 51.9256 58.0111 52.4387 57.6776C52.9518 57.3441 53.3438 56.8543 53.5568 56.2807C56.4196 49.9128 61.5469 44.8362 67.9429 42.037C68.4897 41.7891 68.9529 41.3882 69.2764 40.8826C69.6 40.377 69.7701 39.7885 69.7662 39.1882C69.8005 38.5705 69.6328 37.9584 69.2884 37.4445C68.9441 36.9305 68.4418 36.5427 67.8575 36.3395ZM50.765 52.5773C47.7531 46.8817 43.1247 42.2036 37.4614 39.1312C43.1881 36.201 47.851 31.548 50.7935 25.8276C53.7327 31.5867 58.4333 36.2574 64.2111 39.1597C58.4773 42.1952 53.7841 46.8784 50.7365 52.6058L50.765 52.5773Z" fill="white"/>
<path d="M38.4296 77.1618C37.9709 76.869 37.4157 76.7676 36.8831 76.8795C36.3505 76.9913 35.883 77.3075 35.5808 77.7601L24.5277 94.6816L19.0011 83.2867H7.60618L19.1721 65.5675C19.4035 65.1123 19.4593 64.5879 19.329 64.0942C19.1986 63.6004 18.8911 63.1719 18.4652 62.8903C18.0392 62.6087 17.5246 62.4936 17.0193 62.567C16.5139 62.6405 16.0533 62.8973 15.7251 63.2885L0 87.4173H16.3233L23.9295 102.971L38.9423 79.9821C39.2421 79.5381 39.3562 78.9946 39.2604 78.4675C39.1645 77.9405 38.8664 77.4719 38.4296 77.1618Z" fill="white"/>
<path d="M86.0614 63.2601C85.9286 62.9989 85.7421 62.7687 85.5141 62.5846C85.2861 62.4005 85.0218 62.2666 84.7385 62.1918C84.4552 62.117 84.1593 62.1029 83.8701 62.1505C83.581 62.1981 83.3052 62.3062 83.0607 62.4678C82.8163 62.6294 82.6088 62.8409 82.4517 63.0883C82.2947 63.3357 82.1919 63.6135 82.1497 63.9034C82.1076 64.1934 82.1272 64.4891 82.2073 64.7709C82.2874 65.0528 82.4261 65.3146 82.6144 65.5391L94.2088 83.2582H82.6429L77.1164 94.6532L66.0632 77.7317C65.9304 77.4705 65.7439 77.2403 65.516 77.0562C65.288 76.8721 65.0237 76.7383 64.7404 76.6634C64.4571 76.5886 64.1611 76.5746 63.872 76.6221C63.5828 76.6697 63.307 76.7778 63.0626 76.9394C62.8182 77.101 62.6106 77.3125 62.4536 77.5599C62.2966 77.8073 62.1936 78.0851 62.1515 78.3751C62.1094 78.665 62.129 78.9607 62.2091 79.2426C62.2891 79.5244 62.4279 79.7861 62.6163 80.0106L77.6861 103L85.2922 87.4459H101.786L86.0614 63.2601Z" fill="white"/>
</svg>
