<svg width="131" height="104" viewBox="0 0 131 104" fill="none" xmlns="http://www.w3.org/2000/svg">
<path d="M90.5829 61.1658C95.8754 61.1658 100.166 56.8754 100.166 51.5829C100.166 46.2905 95.8754 42 90.5829 42C85.2904 42 81 46.2905 81 51.5829C81 56.8754 85.2904 61.1658 90.5829 61.1658Z" fill="#EF794C"/>
<path d="M30.9525 21.4352H2.60441C1.91368 21.4352 1.25123 21.7096 0.762808 22.198C0.274386 22.6864 0 23.3489 0 24.0396C0 24.7303 0.274386 25.3928 0.762808 25.8812C1.25123 26.3696 1.91368 26.644 2.60441 26.644H30.9525C31.6432 26.644 32.3056 26.3696 32.7941 25.8812C33.2825 25.3928 33.5569 24.7303 33.5569 24.0396C33.5569 23.3489 33.2825 22.6864 32.7941 22.198C32.3056 21.7096 31.6432 21.4352 30.9525 21.4352Z" fill="white"/>
<path d="M30.9538 36.8279H17.8984C17.2076 36.8279 16.5452 37.1023 16.0568 37.5907C15.5683 38.0791 15.2939 38.7416 15.2939 39.4323C15.2939 40.123 15.5683 40.7855 16.0568 41.2739C16.5452 41.7623 17.2076 42.0367 17.8984 42.0367H30.9538C31.6445 42.0367 32.307 41.7623 32.7954 41.2739C33.2838 40.7855 33.5582 40.123 33.5582 39.4323C33.5582 38.7416 33.2838 38.0791 32.7954 37.5907C32.307 37.1023 31.6445 36.8279 30.9538 36.8279Z" fill="white"/>
<path d="M30.9534 52.2208H9.41691C8.72618 52.2208 8.06373 52.4952 7.57531 52.9836C7.08689 53.4721 6.8125 54.1345 6.8125 54.8252C6.8125 55.516 7.08689 56.1784 7.57531 56.6668C8.06373 57.1553 8.72618 57.4296 9.41691 57.4296H30.9534C31.6441 57.4296 32.3066 57.1553 32.795 56.6668C33.2834 56.1784 33.5578 55.516 33.5578 54.8252C33.5578 54.1345 33.2834 53.4721 32.795 52.9836C32.3066 52.4952 31.6441 52.2208 30.9534 52.2208Z" fill="white"/>
<path d="M126.782 39.133C124.674 34.6214 121.831 30.4915 118.368 26.9123C116.696 25.156 114.875 23.5474 112.926 22.1042L116.265 17.5631C116.514 17.2912 116.703 16.9701 116.82 16.6205C116.938 16.2709 116.98 15.9006 116.946 15.5335C116.911 15.1664 116.8 14.8106 116.619 14.4891C116.438 14.1676 116.192 13.8876 115.897 13.6671C115.601 13.4466 115.263 13.2905 114.903 13.2089C114.543 13.1273 114.171 13.1221 113.809 13.1934C113.447 13.2648 113.104 13.4112 112.803 13.6233C112.501 13.8353 112.247 14.1083 112.057 14.4245L108.418 19.2326C106.009 17.8064 103.471 16.6102 100.838 15.6599C98.5367 14.8635 96.1827 14.2276 93.7931 13.7567C92.2459 13.4783 90.6858 13.2776 89.1185 13.1556V5.20882H94.3941C95.0849 5.20882 95.7473 4.93444 96.2357 4.44601C96.7242 3.95759 96.9985 3.29514 96.9985 2.60441C96.9985 1.91368 96.7242 1.25123 96.2357 0.762808C95.7473 0.274386 95.0849 0 94.3941 0H78.5673C77.8766 0 77.2141 0.274386 76.7257 0.762808C76.2373 1.25123 75.9629 1.91368 75.9629 2.60441C75.9629 3.29514 76.2373 3.95759 76.7257 4.44601C77.2141 4.93444 77.8766 5.20882 78.5673 5.20882H83.9431V12.9219C72.7152 13.2626 62.0107 17.7466 53.8921 25.5099C48.8236 30.3479 44.9388 36.2894 42.5396 42.8727C41.6909 45.2088 41.0321 47.6095 40.5696 50.0515C40.1189 52.4766 39.851 54.9321 39.7682 57.3973C39.5649 66.9334 42.3542 76.2936 47.7442 84.1629C53.1341 92.0323 60.8539 98.0154 69.8191 101.272C72.1208 102.068 74.4748 102.704 76.8644 103.175C79.257 103.606 81.6795 103.852 84.11 103.909H85.2787C96.9453 103.893 108.163 99.4129 116.632 91.3883C121.754 86.5226 125.675 80.5329 128.085 73.8919C128.93 71.5714 129.567 69.1801 129.988 66.7465C130.465 64.303 130.733 61.8231 130.789 59.3339C131.052 52.3796 129.68 45.4604 126.782 39.133V39.133ZM125.146 65.845C124.742 68.0002 124.173 70.1211 123.443 72.1891C121.338 78.0443 117.91 83.3347 113.426 87.6486C110.275 90.6676 106.641 93.139 102.675 94.961C97.0611 97.5932 90.9088 98.8739 84.7111 98.7006C82.5578 98.6526 80.4128 98.418 78.3002 97.9995C76.1794 97.6178 74.0917 97.0708 72.0563 96.3634C64.0972 93.5148 57.2354 88.2355 52.4417 81.2727C47.648 74.3098 45.1651 66.0158 45.3443 57.5643C45.3899 55.3778 45.6245 53.1993 46.0455 51.0532C46.4681 48.9022 47.037 46.7826 47.7484 44.7091C49.551 39.7185 52.327 35.1356 55.9151 31.2264C59.5033 27.3173 63.8321 24.1598 68.6505 21.9372C73.9675 19.4787 79.7546 18.2028 85.6126 18.1976H86.6143C88.7675 18.2456 90.9125 18.4802 93.0251 18.8987C95.1534 19.2777 97.2431 19.8476 99.269 20.6016C105.11 22.6972 110.38 26.1272 114.662 30.6186C117.694 33.8134 120.206 37.4638 122.108 41.4369C124.739 47.0522 126.03 53.2015 125.881 59.4007C125.818 61.5657 125.572 63.7214 125.146 65.845V65.845Z" fill="white"/>
<path d="M101.839 40.2014L90.5869 50.2184C90.0134 49.8658 89.4101 49.5641 88.7839 49.3169C88.3193 49.145 87.8381 49.0219 87.3481 48.9496C86.8485 48.8994 86.3451 48.8994 85.8456 48.9496C84.3691 48.9019 82.903 49.2112 81.5716 49.8511C80.6122 50.2762 79.7403 50.8763 79.0006 51.6208C77.9398 52.628 77.1379 53.8766 76.6633 55.2603C76.4866 55.7513 76.3416 56.2532 76.2293 56.7628C76.1775 57.2735 76.1775 57.7881 76.2293 58.2988C76.1763 59.7756 76.4858 61.243 77.1308 62.5727C77.5582 63.5111 78.1586 64.3606 78.9004 65.0769C79.9166 66.1269 81.1624 66.927 82.54 67.4142C83.4872 67.7381 84.4776 67.9182 85.4783 67.9484H85.7454C87.1313 67.9486 88.4999 67.6407 89.7522 67.0469C90.8902 66.5304 91.9135 65.7917 92.7621 64.8743C93.6107 63.9569 94.2675 62.8793 94.6939 61.7045C94.8706 61.2135 95.0156 60.7116 95.128 60.202C95.1798 59.6913 95.1798 59.1767 95.128 58.666C95.1756 57.1896 94.8664 55.7235 94.2264 54.3921C94.2264 54.3921 94.2264 54.3921 94.2264 54.3921L105.512 44.3752C106.029 43.9026 106.34 43.2458 106.378 42.5463C106.415 41.8468 106.176 41.1606 105.713 40.6354C105.24 40.0892 104.579 39.7411 103.861 39.6607C103.143 39.5802 102.421 39.7733 101.839 40.2014ZM89.7522 59.2337V59.9349C89.5304 60.5474 89.1639 61.0973 88.6837 61.5376C88.3593 61.8573 87.973 62.1073 87.5485 62.2722C86.9588 62.5274 86.321 62.6527 85.6786 62.6395H84.9774H84.343C83.7304 62.4177 83.1806 62.0511 82.7403 61.571C82.413 61.2388 82.1423 60.8553 81.9389 60.4357C81.6627 59.8505 81.5147 59.213 81.5049 58.5659C81.5049 58.3655 81.5049 58.0984 81.5049 57.8647V57.1635C81.7266 56.5509 82.0932 56.001 82.5733 55.5608C82.9055 55.2335 83.289 54.9628 83.7086 54.7594C84.2646 54.5092 84.8686 54.3838 85.4783 54.3921V54.3921H86.1795H86.8139C87.4336 54.5994 87.9869 54.9682 88.4166 55.4606C88.7317 55.8027 89.0011 56.1844 89.2179 56.5959C89.4983 57.1775 89.6248 57.8213 89.5852 58.4657C89.6709 58.7142 89.7269 58.972 89.7522 59.2337V59.2337Z" fill="white"/>
</svg>
