<svg width="51" height="104" viewBox="0 0 51 104" fill="none" xmlns="http://www.w3.org/2000/svg">
<path d="M30.5796 4.33331H25.754C25.0922 4.33331 24.5557 4.83146 24.5557 5.44596V91.3317C24.5557 91.9462 25.0922 92.4444 25.754 92.4444H30.5796C31.2414 92.4444 31.7779 91.9462 31.7779 91.3317V5.44596C31.7779 4.83146 31.2414 4.33331 30.5796 4.33331Z" fill="#EF794C"/>
<path d="M3.1257 78.8193C3.26847 78.6476 3.44328 78.5066 3.63992 78.4045C3.83657 78.3024 4.05113 78.2412 4.27114 78.2246C4.49115 78.2079 4.71223 78.2362 4.92147 78.3076C5.1307 78.379 5.3239 78.4921 5.48989 78.6405C11.2523 83.4818 18.4592 86.1727 25.9212 86.2691C34.9694 86.2691 42.3539 80.9946 42.3539 72.2932C42.3539 52.6854 0.819902 56.7083 0.819902 32.1835C0.819902 21.6346 9.37184 12.4862 22.4187 10.877V1.28169C22.4225 1.10949 22.4595 0.939758 22.5275 0.782158C22.5956 0.624557 22.6934 0.482192 22.8154 0.363197C22.9374 0.244202 23.0811 0.15091 23.2384 0.0886491C23.3957 0.0263885 23.5635 -0.00361171 23.7322 0.000346338H27.6141C27.7904 -0.00360975 27.9658 0.0279396 28.1302 0.0931961C28.2945 0.158453 28.4448 0.256129 28.5721 0.380657C28.6995 0.505186 28.8016 0.654112 28.8726 0.818943C28.9436 0.983774 28.9821 1.16128 28.9859 1.3413V10.7877C35.7355 10.9602 42.2566 13.3186 47.6076 17.5223C47.8799 17.7454 48.0628 18.0624 48.122 18.4137C48.1811 18.765 48.1123 19.1263 47.9286 19.4295L45.5061 23.4821C45.3945 23.6627 45.2477 23.8178 45.0747 23.9377C44.9017 24.0576 44.7063 24.1396 44.5008 24.1788C44.2953 24.218 44.084 24.2134 43.8803 24.1653C43.6766 24.1172 43.4848 24.0267 43.317 23.8993C38.4478 20.2334 32.5831 18.2028 26.5341 18.0885C15.9682 18.0885 9.0216 24.8529 9.0216 31.9451C9.0216 50.51 50.5556 46.0401 50.5556 72.0548C50.5556 83.17 42.4706 92.3482 28.84 93.5997V102.659C28.8362 102.839 28.7977 103.016 28.7267 103.181C28.6557 103.346 28.5535 103.495 28.4262 103.619C28.2988 103.744 28.1486 103.842 27.9843 103.907C27.8199 103.972 27.6445 104.004 27.4682 104H23.6446C23.4683 104.004 23.2929 103.972 23.1285 103.907C22.9641 103.842 22.8139 103.744 22.6865 103.619C22.5591 103.495 22.4571 103.346 22.3861 103.181C22.3151 103.016 22.2766 102.839 22.2728 102.659V93.3613C14.2658 92.872 6.63269 89.7339 0.528009 84.4216C0.21816 84.1261 0.0305345 83.7209 0.00341087 83.2889C-0.0237128 82.8569 0.111704 82.4307 0.382062 82.0972L3.1257 78.8193Z" fill="white"/>
</svg>
