<svg width="87" height="87" viewBox="0 0 87 87" fill="none" xmlns="http://www.w3.org/2000/svg">
<path d="M43.5 87C67.5244 87 87 67.5244 87 43.5001C87 19.4757 67.5244 0 43.5 0C19.4757 0 0 19.4757 0 43.5001C0 67.5244 19.4757 87 43.5 87Z" fill="white"/>
<path d="M61.5763 25.8687L53.6406 24.0472C53.2229 23.9508 52.7848 24.003 52.4014 24.1948C52.0181 24.3865 51.7135 24.706 51.54 25.0981L47.8755 33.6453C47.7223 34.0098 47.6919 34.4143 47.7887 34.7977C47.8855 35.1811 48.1044 35.5226 48.4123 35.7705L53.0804 39.5537C50.2831 45.4952 45.5047 50.2762 39.5664 53.075L35.7853 48.4044C35.5375 48.0963 35.1962 47.8773 34.8131 47.7804C34.4299 47.6835 34.0256 47.714 33.6613 47.8673L25.1187 51.5337C24.7225 51.7033 24.3982 52.0063 24.202 52.3902C24.0059 52.7742 23.9504 53.2148 24.0451 53.6354L25.8656 61.5755C25.9557 61.9792 26.1805 62.3401 26.5029 62.599C26.8253 62.858 27.2261 62.9993 27.6395 63C37.0177 63 46.0118 59.2725 52.6432 52.6375C59.2746 46.0025 63 37.0035 63 27.6202C62.9941 27.2106 62.8504 26.8149 62.5921 26.4971C62.3337 26.1793 61.9759 25.9579 61.5763 25.8687Z" fill="#363636"/>
</svg>
