<svg width="87" height="87" viewBox="0 0 87 87" fill="none" xmlns="http://www.w3.org/2000/svg">
<path d="M43.5 87C67.5244 87 87 67.5244 87 43.5001C87 19.4757 67.5244 0 43.5 0C19.4756 0 0 19.4757 0 43.5001C0 67.5244 19.4756 87 43.5 87Z" fill="white"/>
<path d="M64.1808 38.2433C64.2564 38.19 64.3456 38.1576 64.439 38.1494C64.5323 38.1413 64.6261 38.1577 64.7104 38.1971C64.7947 38.2365 64.8662 38.2973 64.9173 38.3729C64.9683 38.4484 64.9968 38.5359 65 38.626V55.1279C65 56.1548 64.5759 57.1398 63.8209 57.866C63.0659 58.5922 62.0418 59 60.974 59H26.0271C24.9593 59 23.9352 58.5922 23.1802 57.866C22.4252 57.1398 22.0011 56.1548 22.0011 55.1279V38.626C21.9946 38.5321 22.0174 38.4387 22.0665 38.3573C22.1156 38.276 22.1888 38.2106 22.2767 38.1695C22.3647 38.1284 22.4634 38.1135 22.5603 38.1266C22.6571 38.1398 22.7476 38.1804 22.8203 38.2433C24.6928 39.6391 27.1974 41.4401 35.7644 47.406C37.5434 48.6442 40.4459 51.2556 43.5123 51.2556C46.5786 51.2556 49.5513 48.5992 51.26 47.406C59.8036 41.4401 62.2848 39.6616 64.1808 38.2433ZM43.5123 48.6667C45.4551 48.6667 48.1937 46.4155 49.6683 45.3349C60.8101 37.568 61.6529 36.8699 64.2277 34.9338C64.4691 34.7521 64.6643 34.5198 64.7981 34.2545C64.932 33.9892 65.001 33.6979 65 33.403V31.8721C65 30.8452 64.5759 29.8603 63.8209 29.1342C63.0659 28.408 62.0418 28 60.974 28H26.0271C24.9593 28 23.9352 28.408 23.1802 29.1342C22.4252 29.8603 22.0011 30.8452 22.0011 31.8721V33.403C22.0001 33.6979 22.0691 33.9892 22.203 34.2545C22.3369 34.5198 22.532 34.7521 22.7735 34.9338C25.3483 36.8699 26.1909 37.5454 37.3328 45.3349C38.7372 46.3254 41.5461 48.7117 43.4889 48.6667H43.5123Z" fill="#363636"/>
</svg>
