<svg width="1640" height="380" viewBox="0 0 1640 380" fill="none" xmlns="http://www.w3.org/2000/svg">
<path d="M0 182H1640V148.893C1640 147.539 1639.47 146.24 1638.51 145.279L1612.45 119.179C1611.49 118.217 1610.19 117.677 1608.83 117.677C1607.47 117.677 1606.17 118.217 1605.2 119.179L1591.21 133.194C1590.25 134.156 1588.94 134.697 1587.59 134.697C1586.23 134.697 1584.92 134.156 1583.96 133.194L1563.3 112.502C1562.34 111.54 1561.04 111 1559.68 111C1558.32 111 1557.02 111.54 1556.06 112.502L1536.44 132.146C1535.48 133.108 1534.18 133.648 1532.82 133.648C1531.46 133.648 1530.15 133.108 1529.19 132.146L1519 121.938C1518.04 120.976 1516.74 120.436 1515.38 120.436C1514.02 120.436 1512.72 120.976 1511.75 121.938L1485.77 147.955C1484.81 148.917 1483.51 149.457 1482.15 149.457C1480.79 149.457 1479.49 148.917 1478.53 147.955L1463.27 132.67C1462.31 131.708 1461 131.168 1459.64 131.168C1458.28 131.168 1456.98 131.708 1456.02 132.67L1422.02 166.716C1421.06 167.67 1419.77 168.205 1418.41 168.205H0V182Z" fill="#278C8E"/>
<path d="M1093 66.7213C1093 69.4055 1094.07 71.9798 1095.96 73.8778C1097.86 75.7758 1100.44 76.8421 1103.12 76.8421H1191.07V89.4931H1103.09C1100.41 89.4931 1097.84 90.5593 1095.94 92.4574C1094.04 94.3554 1092.97 96.9297 1092.97 99.6138C1092.97 102.298 1094.04 104.872 1095.94 106.77C1097.84 108.668 1100.41 109.735 1103.09 109.735H1191.04V128.534C1191.04 135.244 1188.38 141.68 1183.63 146.425C1178.89 151.17 1172.45 153.836 1165.74 153.836H1093.63C1086.92 153.836 1080.49 151.17 1075.74 146.425C1071 141.68 1068.33 135.244 1068.33 128.534V25.302C1068.33 18.5915 1071 12.1558 1075.74 7.41077C1080.49 2.66574 1086.92 0 1093.63 0H1165.74C1172.45 0 1178.89 2.66574 1183.63 7.41077C1188.38 12.1558 1191.04 18.5915 1191.04 25.302V56.6005H1103.09C1100.42 56.6072 1097.85 57.6765 1095.95 59.5737C1094.06 61.471 1093 64.0415 1093 66.7213Z" fill="#A8A7A7"/>
<path d="M681.258 138.832V94.6294H585.743V138.832H681.258Z" fill="#278B90"/>
<path d="M776.775 138.857V94.6547H681.26V138.857H776.775Z" fill="#F3EAE1"/>
<path d="M872.289 138.832V94.6294H776.774V138.832H872.289Z" fill="#679DA1"/>
<path d="M967.777 138.832V94.6294H872.262V138.832H967.777Z" fill="#F3EAE1"/>
<path d="M1063.04 138.832V94.6294H967.524V138.832H1063.04Z" fill="#679DA1"/>
<path d="M681.258 50.4268V94.6294H585.743V60.4464C585.743 57.7622 586.809 55.1879 588.707 53.2899C590.605 51.3919 593.179 50.3256 595.864 50.3256L681.258 50.3256V50.4268Z" fill="#EC626E"/>
<path d="M776.775 94.6294V50.4269L681.26 50.4269V94.6294H776.775Z" fill="#63A0A6"/>
<path d="M872.266 94.6294V50.4269L776.751 50.4269V94.6294H872.266Z" fill="#EC626E"/>
<path d="M967.777 94.6294V50.4269L872.262 50.4269V94.6294H967.777Z" fill="#278B90"/>
<path d="M1063.04 60.7247V94.6294H967.524V50.4268L1052.72 50.4268C1055.45 50.4268 1058.08 51.5144 1060.02 53.4504C1061.95 55.3864 1063.04 58.0122 1063.04 60.7501V60.7247Z" fill="#EC626E"/>
<path d="M1387.36 63.0778V94.6294H1291.85V50.4268L1374.71 50.4268C1378.07 50.4268 1381.29 51.7597 1383.66 54.1322C1386.03 56.5048 1387.36 59.7226 1387.36 63.0778V63.0778Z" fill="#278B90"/>
<path d="M1291.87 50.4269V94.7053H1196.36V60.8766C1196.36 59.4958 1196.63 58.1286 1197.16 56.8541C1197.69 55.5797 1198.47 54.4232 1199.45 53.4515C1200.43 52.4798 1201.6 51.7122 1202.88 51.1931C1204.16 50.6739 1205.53 50.4135 1206.91 50.4269L1291.87 50.4269Z" fill="#EC626E"/>
<path d="M1387.39 138.832V94.6294H1291.87V138.832H1387.39Z" fill="#EC626E"/>
<path d="M1291.87 138.857V94.6547H1196.36V138.857H1291.87Z" fill="#F3EAE1"/>
<path d="M1217.99 38.1554C1223.57 38.1554 1228.09 33.6355 1228.09 28.0599C1228.09 22.4843 1223.57 17.9644 1217.99 17.9644L1035.51 17.9644C1029.94 17.9644 1025.42 22.4843 1025.42 28.0599C1025.42 33.6355 1029.94 38.1554 1035.51 38.1554L1217.99 38.1554Z" fill="#A8A7A7"/>
<path d="M572.46 213.903C574.303 215.522 575.741 217.549 576.66 219.824L1388.55 208.665C1395.74 195.534 1398.01 191.713 1400.87 174.913V169.22H530.914C541.161 184.148 555.634 199.051 572.46 213.903Z" fill="#EF794C"/>
<path d="M1392.24 119.198L1151.88 119.046C1150.47 124.472 1147.31 129.279 1142.88 132.714C1138.46 136.148 1133.01 138.015 1127.41 138.022H665.547C659.881 138.019 654.381 136.115 649.927 132.615C645.472 129.115 642.321 124.221 640.978 118.717H520.313C516.442 121.652 515.076 122.841 515 124.815C515.133 135.028 517.6 145.076 522.211 154.19H1401V124.713C1401 122.183 1395.13 119.02 1392.24 119.198Z" fill="#EF794C"/>
<path d="M522.238 154.089C524.774 159.371 527.718 164.446 531.043 169.27H1401V154.089H522.238Z" fill="#A8A7A7"/>
<path d="M551.284 193.585C557.787 200.366 564.922 207.147 572.588 213.827C574.431 215.446 575.87 217.473 576.789 219.748C579.673 227.035 575.675 234.929 572.588 239.129C563.252 251.628 534.964 252.741 535.268 265.696C535.395 270.908 543.82 270.756 543.82 270.756H1337.14C1337.14 270.756 1339.14 250.262 1345.56 236.801C1352.34 222.607 1385.26 227.566 1394.19 201.252C1395.05 198.722 1395.94 196.192 1396.72 193.51L551.284 193.585Z" fill="#E15A25"/>
<path d="M1359.07 253.475H1317.86C1315.19 253.475 1313.02 255.633 1313.02 258.295C1313.02 260.957 1315.19 263.115 1317.86 263.115H1359.07C1361.74 263.115 1363.91 260.957 1363.91 258.295C1363.91 255.633 1361.74 253.475 1359.07 253.475Z" fill="#363636"/>
<path d="M1341.74 246.72H1272.34C1265.67 246.72 1260.27 252.117 1260.27 258.776C1260.27 265.434 1265.67 270.832 1272.34 270.832H1341.74C1348.41 270.832 1353.81 265.434 1353.81 258.776C1353.81 252.117 1348.41 246.72 1341.74 246.72Z" fill="#E15A25"/>
<path d="M1386.73 233.183C1387.93 233.183 1389.08 233.66 1389.93 234.51C1390.78 235.359 1391.26 236.511 1391.26 237.712V266.784C1391.25 267.86 1390.82 268.89 1390.06 269.648C1389.29 270.407 1388.26 270.832 1387.19 270.832H1371.7C1370.62 270.832 1369.58 270.403 1368.82 269.639C1368.06 268.875 1367.63 267.839 1367.63 266.759V206.97C1367.63 205.896 1368.05 204.867 1368.81 204.108C1369.57 203.348 1370.6 202.922 1371.68 202.922H1387.19C1388.11 202.917 1389.01 203.228 1389.73 203.803C1390.45 204.378 1390.96 205.183 1391.16 206.085H1384.98C1383.91 206.085 1382.88 206.511 1382.12 207.27C1381.36 208.029 1380.94 209.059 1380.94 210.133V229.135C1380.94 230.208 1381.36 231.238 1382.12 231.997C1382.88 232.756 1383.91 233.183 1384.98 233.183H1386.73Z" fill="#E15A25"/>
<path d="M1361.33 255.221C1361.49 255.223 1361.65 255.165 1361.78 255.058C1361.9 254.951 1361.98 254.802 1362.01 254.639C1362.44 251.476 1364.29 236.523 1362.01 236.523C1359.73 236.523 1355.96 251.122 1355.13 254.538C1355.11 254.622 1355.11 254.709 1355.13 254.793C1355.15 254.877 1355.18 254.956 1355.24 255.024C1355.29 255.092 1355.36 255.147 1355.44 255.185C1355.51 255.224 1355.6 255.245 1355.68 255.246L1361.33 255.221Z" fill="#E15A25"/>
<path d="M1361.45 261.546C1361.59 261.539 1361.73 261.584 1361.84 261.673C1361.94 261.762 1362.01 261.889 1362.03 262.027C1362.41 264.962 1364.36 280.245 1362.03 280.245C1359.7 280.245 1356.09 266.025 1355.18 262.381C1355.15 262.282 1355.15 262.179 1355.17 262.079C1355.2 261.98 1355.24 261.887 1355.3 261.807C1355.37 261.727 1355.45 261.662 1355.54 261.617C1355.63 261.572 1355.73 261.548 1355.83 261.546H1361.45Z" fill="#E15A25"/>
<path d="M347 171.002L347 253C347 254.697 346.585 256.377 345.778 257.944C344.972 259.512 343.79 260.936 342.3 262.136C340.81 263.336 339.041 264.287 337.094 264.937C335.147 265.586 333.06 265.92 330.953 265.92H0L0.00012207 158L331.055 158C333.162 158.011 335.246 158.356 337.188 159.015C339.13 159.674 340.891 160.635 342.372 161.842C343.853 163.05 345.023 164.48 345.817 166.052C346.611 167.623 347.013 169.306 347 171.002Z" fill="#A8A7A7"/>
<path d="M0 193L0 270H330.953C335.204 269.986 339.275 268.618 342.28 266.194C345.286 263.771 346.982 260.488 347 257.061V193H0Z" fill="#6E767A"/>
<path d="M308.407 98.9772H290.05C282.29 98.9772 276 105.267 276 113.027V147.163C276 154.922 282.29 161.213 290.05 161.213H308.407C316.167 161.213 322.457 154.922 322.457 147.163V113.027C322.457 105.267 316.167 98.9772 308.407 98.9772Z" fill="#A8A7A7"/>
<path d="M1403.53 322.309H1395.74C1386.66 322.309 1379.3 329.668 1379.3 338.746C1379.3 347.824 1386.66 355.183 1395.74 355.183H1403.53C1412.61 355.183 1419.97 347.824 1419.97 338.746C1419.97 329.668 1412.61 322.309 1403.53 322.309Z" fill="#1C1C1C"/>
<path d="M1437.72 319.565H1363.74C1362.23 319.565 1361 320.794 1361 322.309C1361 323.825 1362.23 325.053 1363.74 325.053H1437.72C1439.24 325.053 1440.47 323.825 1440.47 322.309C1440.47 320.794 1439.24 319.565 1437.72 319.565Z" fill="#63A4A5"/>
<path d="M1437.72 319.565H1438.13C1438.13 308.754 1421.42 300 1400.79 300C1380.15 300 1363.44 308.754 1363.44 319.565H1437.72Z" fill="#F0D358"/>
<path d="M1438.14 319.593C1438.12 321.519 1437.61 323.409 1436.65 325.081H1437.72C1438.45 325.135 1439.17 324.899 1439.73 324.423C1440.28 323.947 1440.62 323.27 1440.67 322.543C1440.73 321.815 1440.49 321.095 1440.02 320.542C1439.54 319.989 1438.86 319.647 1438.14 319.593V319.593Z" fill="#363636"/>
<path d="M1361 322.309C1361 323.037 1361.29 323.735 1361.8 324.25C1362.32 324.764 1363.02 325.053 1363.74 325.053H1364.92C1363.97 323.382 1363.46 321.492 1363.44 319.565C1362.77 319.64 1362.15 319.962 1361.69 320.468C1361.24 320.975 1361 321.631 1361 322.309V322.309Z" fill="#363636"/>
<path d="M1437.72 319.565H1363.44C1363.45 321.492 1363.97 323.382 1364.92 325.053H1436.65C1437.61 323.382 1438.12 321.492 1438.13 319.565H1437.72Z" fill="#363636"/>
<path d="M1437.72 352.467H1363.74C1362.23 352.467 1361 353.695 1361 355.211C1361 356.726 1362.23 357.955 1363.74 357.955H1437.72C1439.24 357.955 1440.47 356.726 1440.47 355.211C1440.47 353.695 1439.24 352.467 1437.72 352.467Z" fill="#363636"/>
<path d="M1371.67 356.006V319.593H1366.19V356.006H1371.67Z" fill="#363636"/>
<path d="M1377.16 360.177V355.677C1377.16 354.162 1375.93 352.933 1374.42 352.933C1372.9 352.933 1371.67 354.162 1371.67 355.677V360.177C1371.67 361.693 1372.9 362.921 1374.42 362.921C1375.93 362.921 1377.16 361.693 1377.16 360.177Z" fill="#363636"/>
<path d="M1428.53 359.711V355.211C1428.53 353.695 1427.3 352.467 1425.79 352.467C1424.27 352.467 1423.05 353.695 1423.05 355.211V359.711C1423.05 361.226 1424.27 362.455 1425.79 362.455C1427.3 362.455 1428.53 361.226 1428.53 359.711Z" fill="#363636"/>
<path d="M1434.05 356.006V319.593H1428.56V356.006H1434.05Z" fill="#363636"/>
<path d="M1365.88 331.2L1364.43 344.92C1364.39 345.288 1364.5 345.655 1364.73 345.943C1364.96 346.231 1365.3 346.416 1365.66 346.457L1380.54 348.049C1382.35 348.241 1384.17 347.704 1385.59 346.557C1387.01 345.409 1387.92 343.745 1388.11 341.929L1388.33 339.734C1388.43 338.79 1388.35 337.834 1388.08 336.923C1387.81 336.011 1387.37 335.161 1386.77 334.422C1386.18 333.682 1385.44 333.068 1384.6 332.614C1383.77 332.16 1382.85 331.875 1381.91 331.776L1367.2 330.212C1366.9 330.186 1366.6 330.272 1366.35 330.455C1366.11 330.637 1365.94 330.902 1365.88 331.2V331.2ZM1385.26 335.508C1386.08 336.529 1386.59 337.773 1386.71 339.081C1386.83 340.389 1386.56 341.704 1385.93 342.859C1385.3 344.013 1384.35 344.956 1383.19 345.567C1382.02 346.178 1380.7 346.431 1379.4 346.292C1378.09 346.154 1376.86 345.631 1375.85 344.79C1374.84 343.949 1374.1 342.827 1373.73 341.566C1373.36 340.306 1373.37 338.964 1373.76 337.71C1374.15 336.455 1374.9 335.345 1375.93 334.52C1377.3 333.416 1379.05 332.9 1380.8 333.085C1382.55 333.27 1384.15 334.142 1385.26 335.508V335.508Z" fill="#363636"/>
<path d="M1411.35 343.493L1419.01 356.144C1419.18 356.417 1419.45 356.613 1419.76 356.69C1420.08 356.767 1420.41 356.718 1420.68 356.555L1432.4 349.476C1432.72 349.282 1432.94 348.972 1433.03 348.612C1433.12 348.251 1433.06 347.871 1432.87 347.555L1425.13 334.74C1424.66 333.964 1424.05 333.289 1423.32 332.752C1422.59 332.215 1421.76 331.827 1420.88 331.61C1420 331.394 1419.09 331.353 1418.19 331.489C1417.3 331.626 1416.44 331.938 1415.66 332.407L1413.77 333.533C1412.95 334.025 1412.24 334.674 1411.68 335.443C1411.12 336.211 1410.71 337.084 1410.49 338.01C1410.26 338.936 1410.22 339.897 1410.37 340.838C1410.52 341.78 1410.85 342.682 1411.35 343.493V343.493ZM1420.11 333.56C1421.38 333.875 1422.54 334.561 1423.42 335.531C1424.31 336.501 1424.88 337.712 1425.08 339.01C1425.28 340.309 1425.09 341.636 1424.53 342.826C1423.97 344.015 1423.07 345.012 1421.95 345.691C1420.82 346.37 1419.52 346.7 1418.21 346.641C1416.9 346.581 1415.64 346.133 1414.58 345.355C1413.52 344.576 1412.72 343.501 1412.27 342.267C1411.82 341.032 1411.75 339.692 1412.07 338.417C1412.28 337.57 1412.65 336.773 1413.17 336.07C1413.68 335.368 1414.33 334.774 1415.08 334.323C1415.83 333.872 1416.66 333.572 1417.52 333.441C1418.38 333.31 1419.26 333.351 1420.11 333.56V333.56Z" fill="#363636"/>
<path d="M1382.82 344.948C1382.52 344.964 1382.23 344.922 1381.95 344.824C1381.67 344.726 1381.41 344.574 1381.19 344.376C1380.97 344.179 1380.79 343.94 1380.66 343.673C1380.53 343.406 1380.46 343.117 1380.44 342.821C1380.43 342.526 1380.47 342.23 1380.57 341.951C1380.67 341.671 1380.82 341.414 1381.01 341.194C1381.21 340.974 1381.45 340.794 1381.72 340.666C1381.98 340.538 1382.27 340.464 1382.57 340.448C1383.8 340.448 1384.82 340.448 1384.87 341.628C1384.93 342.807 1384.05 344.756 1382.82 344.948Z" fill="#4D4C4C"/>
<path d="M1383.89 335.371C1384.03 335.645 1384.12 335.947 1384.14 336.257C1384.17 336.566 1384.13 336.877 1384.02 337.171C1383.92 337.464 1383.76 337.733 1383.55 337.96C1383.33 338.187 1383.08 338.369 1382.79 338.492C1382.51 338.616 1382.2 338.679 1381.89 338.678C1381.58 338.676 1381.27 338.611 1380.99 338.485C1380.7 338.36 1380.45 338.177 1380.24 337.948C1380.03 337.719 1379.87 337.449 1379.77 337.155C1379.28 336.03 1378.92 335.069 1380.07 334.575C1381.22 334.081 1383.39 334.246 1383.89 335.371Z" fill="#4D4C4C"/>
<path d="M1374.5 339.734C1374.62 339.176 1374.94 338.684 1375.41 338.357C1375.88 338.03 1376.45 337.892 1377.02 337.973C1377.58 338.053 1378.1 338.344 1378.45 338.789C1378.81 339.233 1378.99 339.796 1378.95 340.365C1378.78 341.6 1378.59 342.588 1377.35 342.396C1376.12 342.204 1374.31 340.969 1374.5 339.734Z" fill="#4D4C4C"/>
<path d="M1380.29 340.749C1380.84 340.749 1381.28 340.307 1381.28 339.762C1381.28 339.216 1380.84 338.774 1380.29 338.774C1379.74 338.774 1379.3 339.216 1379.3 339.762C1379.3 340.307 1379.74 340.749 1380.29 340.749Z" fill="#4D4C4C"/>
<path d="M1421.48 345.058C1420.88 345.09 1420.3 344.885 1419.85 344.486C1419.41 344.087 1419.14 343.528 1419.1 342.931C1419.07 342.334 1419.28 341.749 1419.68 341.304C1420.08 340.859 1420.63 340.59 1421.23 340.557C1422.47 340.557 1423.48 340.557 1423.54 341.737C1423.59 342.917 1422.71 345.003 1421.48 345.058Z" fill="#4D4C4C"/>
<path d="M1422.57 335.508C1422.72 335.782 1422.81 336.084 1422.83 336.394C1422.86 336.703 1422.81 337.015 1422.71 337.308C1422.61 337.601 1422.45 337.87 1422.24 338.097C1422.02 338.325 1421.77 338.506 1421.48 338.629C1421.2 338.753 1420.89 338.816 1420.58 338.815C1420.27 338.814 1419.96 338.748 1419.68 338.623C1419.39 338.497 1419.14 338.314 1418.93 338.085C1418.72 337.856 1418.56 337.586 1418.46 337.292C1417.96 336.167 1417.61 335.206 1418.76 334.712C1419.91 334.219 1422.05 334.356 1422.57 335.508Z" fill="#4D4C4C"/>
<path d="M1413.16 339.844C1413.28 339.286 1413.61 338.793 1414.08 338.466C1414.54 338.139 1415.12 338.002 1415.68 338.082C1416.25 338.162 1416.76 338.454 1417.12 338.898C1417.48 339.343 1417.65 339.906 1417.61 340.475C1417.45 341.71 1417.25 342.698 1416.02 342.506C1414.78 342.314 1413 341.079 1413.16 339.844Z" fill="#4D4C4C"/>
<path d="M1418.98 340.859C1419.53 340.859 1419.97 340.417 1419.97 339.871C1419.97 339.326 1419.53 338.883 1418.98 338.883C1418.43 338.883 1417.99 339.326 1417.99 339.871C1417.99 340.417 1418.43 340.859 1418.98 340.859Z" fill="#4D4C4C"/>
<path d="M1400.21 348.543C1405.74 348.543 1410.23 344.058 1410.23 338.527C1410.23 332.995 1405.74 328.511 1400.21 328.511C1394.68 328.511 1390.2 332.995 1390.2 338.527C1390.2 344.058 1394.68 348.543 1400.21 348.543Z" fill="#4D4C4C"/>
<path d="M1407.59 340.829C1408.89 336.712 1406.62 332.316 1402.5 331.011C1398.38 329.706 1393.99 331.985 1392.68 336.103C1391.37 340.22 1393.65 344.616 1397.77 345.921C1401.89 347.226 1406.28 344.947 1407.59 340.829Z" fill="#61BFB5"/>
<path d="M1394.51 336.716C1394.74 335.966 1395.13 335.27 1395.63 334.668C1396.14 334.066 1396.76 333.57 1397.46 333.208C1398.16 332.846 1398.92 332.625 1399.7 332.559C1400.49 332.492 1401.28 332.58 1402.02 332.819" stroke="#D1D0D1" stroke-miterlimit="10"/>
<path d="M308.188 108.582V78.6713C308.188 76.7618 306.64 75.2138 304.73 75.2138H293.726C291.817 75.2138 290.269 76.7618 290.269 78.6713V108.582C290.269 110.491 291.817 112.039 293.726 112.039H304.73C306.64 112.039 308.188 110.491 308.188 108.582Z" fill="#A8A7A7"/>
<path d="M318.966 82.3263L293.063 67.3712C291.409 66.4164 289.294 66.983 288.34 68.6367L278.228 86.151C277.273 87.8047 277.84 89.9193 279.493 90.8741L305.396 105.829C307.05 106.784 309.165 106.217 310.119 104.564L320.231 87.0494C321.186 85.3957 320.619 83.2811 318.966 82.3263Z" fill="#1C1C1C"/>
<path d="M315.623 83.2816L293.902 70.7413C292.249 69.7865 290.134 70.3531 289.179 72.0068L281.565 85.196C280.61 86.8497 281.176 88.9643 282.83 89.9191L304.551 102.459C306.204 103.414 308.319 102.848 309.274 101.194L316.889 88.0047C317.843 86.351 317.277 84.2364 315.623 83.2816Z" fill="#E7F3F1"/>
<path d="M293.342 89.4829L298.775 80.7294L302.617 89.4829H293.342Z" fill="#EC626E"/>
<path d="M223.395 157.261C223.395 157.261 222.599 160.691 223.395 161.295C227.754 162.498 232.221 163.27 236.731 163.6C237.774 163.353 239.173 161.542 238.24 161.021C237.307 160.499 230.612 158.908 230.2 157.261H223.395Z" fill="#1C1C1C"/>
<path d="M237.198 157.042C237.198 157.042 236.237 159.484 236.731 160.088C240.545 161.461 244.52 162.337 248.558 162.695C249.573 162.338 250.506 160.938 249.82 160.088C249.134 159.237 244.332 158.359 244.332 157.618L237.198 157.042Z" fill="#1C1C1C"/>
<path d="M223.038 157.261C222.407 133.854 219.333 105.371 222.791 89.4829H245.594C246.829 97.9346 245.594 131.302 244.716 157.591C242.103 158.293 239.33 158.1 236.84 157.042C236.84 157.042 234.728 116.539 234.782 114.756C234.902 112.893 234.641 111.026 234.014 109.268C233.139 111.139 232.698 113.184 232.724 115.25C232.724 117.61 230.557 157.289 230.557 157.289C229.367 157.795 228.087 158.053 226.794 158.049C225.502 158.044 224.224 157.776 223.038 157.261V157.261Z" fill="#3C3829"/>
<path d="M247.13 91.6507C248.035 91.1842 248.392 88.9066 247.816 87.7541C247.239 86.6016 221.335 81.9916 220.594 80.894C220.119 77.8158 220.363 74.6693 221.308 71.7013C221.912 71.7013 222.79 89.4554 222.79 89.4554H245.593C245.593 89.4554 246.389 71.7837 247.075 71.7013C247.761 71.619 257.255 93.5167 257.667 93.9283C258.078 94.3399 261.124 94.1752 261.316 93.4618C261.509 92.7483 251.904 57.9536 250.038 55.4016C248.172 52.8496 237.306 47.7182 237.306 47.7182H229.897C229.897 47.7182 216.808 54.6333 215.381 56.8834C213.954 59.1335 212.637 84.0496 213.487 85.3668C214.338 86.6839 246.224 92.1172 247.13 91.6507Z" fill="#EC626E"/>
<path d="M247.132 91.6507C248.038 91.1842 248.394 88.9066 247.818 87.7541C247.242 86.6016 221.338 81.9916 220.597 80.894C220.122 77.8158 220.366 74.6693 221.31 71.7013C221.914 71.7013 222.792 89.4554 222.792 89.4554H245.595C245.595 89.4554 246.391 71.7837 247.077 71.7013C247.763 71.619 257.258 93.5167 257.669 93.9283C258.081 94.3399 261.127 94.1752 261.319 93.4618C261.511 92.7483 251.907 57.9536 250.041 55.4016C248.175 52.8496 237.308 47.7182 237.308 47.7182H229.899C229.899 47.7182 217.441 55.1821 215.383 56.8834C212.639 59.161 211.459 84.0496 213.49 85.3668C224.586 88.0509 235.815 90.1485 247.132 91.6507V91.6507Z" fill="#EC626E"/>
<path d="M247.9 80.0982C247.9 85.5864 247.9 91.98 246.692 92.0349C244.744 92.0349 235.003 91.2391 233.685 91.2391C232.368 91.2391 223.066 93.16 221.2 92.0349C219.938 91.2666 221.2 83.8027 221.502 78.7536C221.502 78.1225 221.502 77.5188 221.502 76.97C221.502 75.2687 221.502 74.0613 221.118 73.8418C219.855 73.1832 212.309 61.2191 214.285 57.3774C215.575 54.9077 226.88 48.4043 228.005 48.7061C229.13 49.008 228.17 49.4744 228.335 50.2977C228.499 51.1209 232.67 53.0417 233.548 54.7156C234.224 61.1687 234.517 67.6559 234.426 74.1436C234.426 66.2956 234.426 55.7309 234.673 54.9351C235.195 53.5905 237.582 53.0692 238.186 51.9441C238.789 50.819 237.198 48.0475 238.186 47.6359C239.174 47.2243 249.162 52.4106 250.699 54.9351C252.235 57.4597 247.955 71.3995 247.79 73.0185C247.79 73.5399 247.79 75.5431 247.79 78.0951C247.9 78.6987 247.9 79.3848 247.9 80.0982Z" fill="#F0D358"/>
<path d="M247.131 91.6508C247.515 91.0873 247.775 90.4483 247.894 89.7764C248.012 89.1045 247.986 88.4151 247.817 87.7542C247.24 86.7389 221.336 81.9917 220.595 80.894C219.855 79.7964 213.159 83.8851 213.488 85.3943C214.284 89.1811 246.225 93.0777 247.131 91.6508Z" fill="#EC626E"/>
<path d="M239.367 40.8581C239.367 45.1662 239.367 47.7457 233.879 49.2823C229.736 50.4623 226.086 45.7974 226.086 41.4892C226.086 39.4223 226.907 37.4401 228.368 35.9786C229.83 34.5171 231.812 33.696 233.879 33.696C238.215 33.696 239.367 36.5499 239.367 40.8581Z" fill="#E3C5D1"/>
<path d="M240.819 36.5224C243.179 40.7757 236.1 36.1383 231.846 38.5256C227.593 40.9129 227.758 49.3647 225.398 45.0839C224.262 43.0389 223.986 40.6266 224.629 38.3777C225.272 36.1289 226.783 34.2277 228.828 33.0923C230.873 31.957 233.285 31.6806 235.534 32.3239C237.783 32.9671 239.684 34.4774 240.819 36.5224V36.5224Z" fill="#3C3829"/>
<path d="M224.576 43.5198C230.929 42.3731 237.048 40.185 242.687 37.0438C242.824 36.742 242.468 36.5499 242.138 36.495C241.809 36.4401 241.59 36.9066 241.26 36.495C240.931 36.0834 237.528 27.961 229.324 30.4855C221.119 33.01 224.384 42.1203 224.247 42.4496C224.11 42.7789 224.576 43.5198 224.576 43.5198Z" fill="#EF794C"/>
<path d="M261.317 92.3642C261.317 92.3642 264.967 97.3584 264.802 99.0872C264.637 100.816 261.18 101.42 260.329 101.008C259.479 100.596 258.408 97.0291 258.408 97.0291C258.408 97.0291 257.832 99.7732 257.201 98.8676C256.57 97.9621 257.558 93.599 257.558 93.599C258.692 92.8879 259.982 92.464 261.317 92.3642V92.3642Z" fill="#E3C5D1"/>
<path d="M231.765 47.581L229.076 49.6939L233.933 53.0143L238.296 50.2976L236.348 47.581H231.765Z" fill="#E3C5D1"/>
<path d="M251.467 86.505L249.313 88.6587C247.417 90.5555 247.417 93.6308 249.313 95.5276L255.6 101.814C257.497 103.711 260.572 103.711 262.469 101.814L264.623 99.6605C266.519 97.7637 266.519 94.6885 264.623 92.7917L258.336 86.505C256.439 84.6082 253.364 84.6082 251.467 86.505Z" fill="#1C1C1C"/>
<path d="M261.1 92.1172L260.359 91.3763C260.359 91.3763 257.615 93.7911 257.615 94.1204C257.615 94.4497 260.359 96.8645 260.359 96.8645L261.155 96.0687C261.651 95.5272 261.922 94.8165 261.912 94.0821C261.902 93.3476 261.611 92.6448 261.1 92.1172V92.1172Z" fill="#F0D358"/>
<path d="M259.754 90.8001L259.013 90.0592C258.746 89.7896 258.427 89.5756 258.076 89.4295C257.725 89.2835 257.349 89.2083 256.969 89.2083C256.589 89.2083 256.213 89.2835 255.862 89.4295C255.511 89.5756 255.192 89.7896 254.925 90.0592L254.129 90.855C254.959 91.8507 255.877 92.7691 256.873 93.599C257.339 93.6814 259.754 90.8001 259.754 90.8001Z" fill="#F0D358"/>
<path d="M254.186 97.4133L254.926 98.1542C255.194 98.4238 255.513 98.6378 255.864 98.7838C256.214 98.9299 256.591 99.0051 256.971 99.0051C257.351 99.0051 257.727 98.9299 258.078 98.7838C258.429 98.6378 258.747 98.4238 259.015 98.1542L259.729 97.4407C259.729 97.4407 257.424 94.6967 256.984 94.6967C256.545 94.6967 254.186 97.4133 254.186 97.4133Z" fill="#F0D358"/>
<path d="M253.553 91.2665L252.839 91.98C252.57 92.2478 252.356 92.5663 252.21 92.9171C252.063 93.268 251.988 93.6443 251.988 94.0243C251.988 94.4044 252.063 94.7806 252.21 95.1315C252.356 95.4824 252.57 95.8009 252.839 96.0687L253.58 96.8095C254.56 95.9623 255.477 95.0452 256.324 94.0655C255.469 93.0673 254.542 92.1319 253.553 91.2665Z" fill="#F0D358"/>
<path d="M247.133 91.6507C247.133 91.6507 252.621 94.5869 254.267 94.1752C255.914 93.7636 256.078 90.2512 255.557 89.4829C255.036 88.7146 251.331 88.1383 251.331 88.1383C251.331 88.1383 254.075 87.1779 252.978 86.6839C251.88 86.19 247.791 87.7816 247.791 87.7816C247.263 88.9993 247.037 90.3268 247.133 91.6507V91.6507Z" fill="#E3C5D1"/>
<path d="M247.902 80.0983C243.264 80.2904 238.737 80.4001 234.593 80.3178C230.181 80.3523 225.783 79.8267 221.504 78.7537C221.504 78.1225 221.504 77.5188 221.504 76.97C225.794 77.6934 230.133 78.0879 234.483 78.15C238.709 78.15 243.182 78.15 247.792 78.15C247.902 78.6988 247.902 79.3848 247.902 80.0983Z" fill="#3C3829"/>
<path d="M304.07 157.042C314.785 157.042 323.471 148.356 323.471 137.641C323.471 126.927 314.785 118.241 304.07 118.241C293.356 118.241 284.67 126.927 284.67 137.641C284.67 148.356 293.356 157.042 304.07 157.042Z" fill="#A48D29"/>
<path d="M304.072 155.395C313.878 155.395 321.827 147.446 321.827 137.641C321.827 127.836 313.878 119.887 304.072 119.887C294.267 119.887 286.318 127.836 286.318 137.641C286.318 147.446 294.267 155.395 304.072 155.395Z" fill="#F0D358"/>
<path d="M1368 337C1277 310.5 1296.5 363.5 1244.5 372.5C1192.5 381.5 1127.5 285.5 1069.5 303.204C1011.5 320.908 960.66 371.535 887.5 360.5C850.5 354.919 790 307.674 747.5 314.674C705 321.674 610.5 380 554.5 378C498.5 376 427.623 333.119 355.5 327.5C283.377 321.881 187.967 348.984 159 350.5C130.033 352.016 98.5 341.928 98.5 322.5C98.5 303.072 162.697 305.591 138 274.666C112.617 242.862 142 217.289 185 220.5C228 223.711 271.696 267.551 304.433 278.5C343.399 291.534 392.501 293.289 374.5 253.5C367.859 238.847 355.116 207.244 352.564 193.633C350.012 180.023 350.177 165.26 345.237 162.488C335.331 157 330.831 162.488 304.433 157" stroke="#474747" stroke-width="2" stroke-miterlimit="10"/>
<path d="M352.203 193.84C349.651 180.284 349.816 165.466 344.877 162.695C334.971 157.206 330.47 162.695 304.072 157.206C302.219 157.003 300.384 156.654 298.584 156.164C288.733 152.761 283.821 145.736 285.084 134.211C285.907 127.077 292.026 123.235 302.344 122.082" stroke="#787B71" stroke-width="2" stroke-miterlimit="10"/>
<path d="M0 188C14.6286 188 14.6286 199 29.2847 199C43.9409 199 43.9133 188 58.5419 188C73.1705 188 73.1705 199 87.8266 199C102.483 199 102.455 188 117.111 188C131.767 188 131.74 199 146.396 199C161.052 199 161.025 188 175.681 188C190.337 188 190.309 199 204.966 199C219.622 199 219.594 188 234.25 188C248.906 188 248.906 199 263.535 199C278.164 199 278.164 188 292.82 188C307.476 188 307.448 199 322.104 199C336.761 199 336.733 188 351.389 188C366.045 188 366.045 199 380.674 199C395.303 199 395.303 188 409.959 188C424.615 188 424.587 199 439.243 199C453.9 199 453.872 188 468.528 188C483.184 188 483.157 199 497.813 199C512.469 199 512.441 188 527.098 188C541.754 188 541.726 199 556.382 199C571.038 199 571.011 188 585.667 188C600.323 188 600.296 199 614.952 199C629.608 199 629.58 188 644.237 188C658.893 188 658.865 199 673.521 199C688.177 199 688.15 188 702.806 188C717.462 188 717.462 199 732.091 199C746.719 199 746.719 188 761.376 188C776.032 188 776.032 199 790.66 199C805.289 199 805.289 188 819.945 188C834.601 188 834.601 199 849.23 199C863.858 199 863.858 188 878.514 188C893.171 188 893.171 199 907.799 199C922.428 199 922.455 188 937.084 188C951.713 188 951.712 199 966.369 199C981.025 199 981.025 188 995.653 188C1010.28 188 1010.31 199 1024.94 199C1039.57 199 1039.59 188 1054.22 188C1068.85 188 1068.85 199 1083.51 199C1098.16 199 1098.14 188 1112.79 188C1127.45 188 1127.42 199 1142.08 199C1156.73 199 1156.73 188 1171.36 188C1185.99 188 1185.99 199 1200.65 199C1215.3 199 1215.3 188 1229.93 188C1244.56 188 1244.59 199 1259.22 199C1273.84 199 1273.87 188 1288.5 188C1303.13 188 1303.16 199 1317.79 199C1332.41 199 1332.44 188 1347.07 188C1361.7 188 1361.73 199 1376.35 199C1390.98 199 1391.01 188 1405.64 188C1420.27 188 1420.3 199 1434.92 199C1449.55 199 1449.58 188 1464.21 188C1478.84 188 1478.87 199 1493.49 199C1508.12 199 1508.15 188 1522.78 188C1537.41 188 1537.43 199 1552.09 199C1566.75 199 1566.75 188 1581.38 188C1596 188 1596.03 199 1610.69 199C1625.34 199 1625.34 188 1640 188" stroke="#58BEBF" stroke-width="5" stroke-miterlimit="10"/>
</svg>
