<svg width="320" height="415" viewBox="0 0 320 415" fill="none" xmlns="http://www.w3.org/2000/svg">
<rect y="5" width="320" height="189" fill="#F5F5F5"/>
<path d="M123.415 194.205V208H37.5V194.205H123.415Z" fill="#278C8E"/>
<path d="M56.5854 282.731C85.9578 282.731 99.3092 379.075 142.825 390C186.341 400.925 195.275 379.285 240.032 379.285C284.79 379.285 320 415.379 320 415.379V208H0V282.731H56.5854Z" fill="#63A4A5"/>
<mask id="mask0" mask-type="alpha" maskUnits="userSpaceOnUse" x="87" y="0" width="233" height="298">
<rect x="87" width="233" height="298" fill="#C4C4C4"/>
</mask>
<g mask="url(#mask0)">
<path d="M402 79.7213C402 82.4055 400.934 84.9798 399.036 86.8778C397.138 88.7758 394.564 89.8421 391.88 89.8421H303.93V102.493H391.905C394.589 102.493 397.164 103.559 399.062 105.457C400.96 107.355 402.026 109.93 402.026 112.614C402.026 115.298 400.96 117.872 399.062 119.77C397.164 121.668 394.589 122.735 391.905 122.735H303.955V141.534C303.955 148.244 306.621 154.68 311.366 159.425C316.111 164.17 322.547 166.836 329.257 166.836H401.368C408.078 166.836 414.514 164.17 419.259 159.425C424.004 154.68 426.67 148.244 426.67 141.534V38.302C426.67 31.5915 424.004 25.1558 419.259 20.4108C414.514 15.6657 408.078 13 401.368 13H329.257C322.547 13 316.111 15.6657 311.366 20.4108C306.621 25.1558 303.955 31.5915 303.955 38.302V69.6005H391.905C394.585 69.6072 397.153 70.6765 399.045 72.5737C400.938 74.471 402.001 77.0415 402 79.7213Z" fill="#A8A7A7"/>
<path d="M107.637 76.0777V107.629H203.152V63.4268L120.288 63.4268C116.932 63.4268 113.715 64.7597 111.342 67.1322C108.97 69.5047 107.637 72.7225 107.637 76.0777V76.0777Z" fill="#278B90"/>
<path d="M203.129 63.4268V107.705H298.644V73.8765C298.644 72.4957 298.37 71.1285 297.839 69.854C297.307 68.5796 296.529 67.423 295.547 66.4514C294.566 65.4797 293.402 64.7121 292.123 64.193C290.843 63.6738 289.474 63.4134 288.093 63.4268L203.129 63.4268Z" fill="#EC626E"/>
<path d="M107.613 151.832V107.629H203.128V151.832H107.613Z" fill="#EC626E"/>
<path d="M203.129 151.857V107.655H298.644V151.857H203.129Z" fill="#F3EAE1"/>
<path d="M277.01 51.1554C271.434 51.1554 266.914 46.6355 266.914 41.0599C266.914 35.4843 271.434 30.9644 277.01 30.9644L459.487 30.9644C465.063 30.9644 469.583 35.4843 469.583 41.0599C469.583 46.6355 465.063 51.1554 459.487 51.1554L277.01 51.1554Z" fill="#A8A7A7"/>
<path d="M922.54 226.903C920.697 228.522 919.259 230.549 918.34 232.824L106.45 221.666C99.2646 208.534 96.9874 204.713 94.1283 187.913V182.22H964.086C953.839 197.148 939.366 212.051 922.54 226.903Z" fill="#EF794C"/>
<path d="M102.755 132.198L343.124 132.046C344.525 137.472 347.688 142.279 352.116 145.714C356.544 149.148 361.987 151.015 367.591 151.022H829.453C835.119 151.019 840.619 149.115 845.073 145.615C849.528 142.115 852.679 137.221 854.022 131.717H974.687C978.558 134.652 979.924 135.841 980 137.815C979.867 148.028 977.4 158.076 972.789 167.19H94.0011V137.713C94.0011 135.183 99.871 132.02 102.755 132.198Z" fill="#EF794C"/>
<path d="M972.762 167.089C970.226 172.37 967.282 177.446 963.957 182.27H93.999V167.089H972.762Z" fill="#A8A7A7"/>
<path d="M943.981 206.076C937.479 212.857 930.344 219.638 922.677 226.317C920.834 227.936 919.396 229.964 918.477 232.238C915.593 239.525 919.59 247.419 922.677 251.619C932.014 264.119 960.301 265.232 959.998 278.187C959.871 283.399 951.445 283.247 951.445 283.247H158.128C158.128 283.247 156.129 262.752 149.702 249.292C142.921 235.097 110.003 240.056 101.072 213.742C100.211 211.212 99.3258 208.682 98.5415 206L943.981 206.076Z" fill="#E15A25"/>
<path d="M135.927 266.475H177.144C179.813 266.475 181.977 268.633 181.977 271.295C181.977 273.957 179.813 276.115 177.144 276.115H135.927C133.258 276.115 131.094 273.957 131.094 271.295C131.094 268.633 133.258 266.475 135.927 266.475Z" fill="#363636"/>
<path d="M153.258 259.719H222.661C229.327 259.719 234.73 265.117 234.73 271.776C234.73 278.434 229.327 283.832 222.661 283.832H153.258C146.593 283.832 141.189 278.434 141.189 271.776C141.189 265.117 146.593 259.719 153.258 259.719Z" fill="#E15A25"/>
<path d="M108.27 246.183C107.069 246.183 105.917 246.66 105.068 247.51C104.218 248.359 103.741 249.511 103.741 250.712V279.784C103.748 280.86 104.18 281.89 104.943 282.648C105.706 283.407 106.738 283.832 107.815 283.832H123.299C124.38 283.832 125.416 283.403 126.18 282.639C126.944 281.875 127.373 280.839 127.373 279.759V219.97C127.373 218.897 126.947 217.867 126.187 217.108C125.428 216.348 124.398 215.922 123.325 215.922H107.815C106.891 215.917 105.993 216.228 105.271 216.803C104.548 217.378 104.044 218.183 103.842 219.085H110.016C111.09 219.085 112.119 219.511 112.878 220.27C113.638 221.03 114.064 222.059 114.064 223.133V242.135C114.064 243.208 113.638 244.238 112.878 244.997C112.119 245.757 111.09 246.183 110.016 246.183H108.27Z" fill="#E15A25"/>
<path d="M133.674 268.221C133.509 268.223 133.349 268.165 133.223 268.058C133.098 267.951 133.015 267.802 132.991 267.639C132.56 264.476 130.713 249.523 132.991 249.523C135.268 249.523 139.038 264.122 139.873 267.538C139.892 267.622 139.891 267.709 139.872 267.793C139.853 267.878 139.816 267.956 139.762 268.024C139.709 268.092 139.641 268.147 139.564 268.185C139.487 268.224 139.402 268.245 139.316 268.246L133.674 268.221Z" fill="#E15A25"/>
<path d="M133.55 274.546C133.41 274.539 133.273 274.584 133.165 274.673C133.057 274.762 132.987 274.889 132.968 275.027C132.588 277.962 130.64 293.245 132.968 293.245C135.296 293.245 138.914 279.025 139.825 275.381C139.847 275.282 139.848 275.179 139.825 275.079C139.803 274.98 139.758 274.887 139.695 274.807C139.632 274.727 139.552 274.662 139.461 274.617C139.369 274.572 139.269 274.548 139.167 274.546H133.55Z" fill="#E15A25"/>
</g>
<path d="M68.9997 178.414L68.9997 288.232C68.9997 290.504 68.5846 292.755 67.7782 294.854C66.9718 296.953 65.7897 298.861 64.2997 300.468C62.8096 302.074 61.0406 303.349 59.0937 304.219C57.1468 305.088 55.0601 305.536 52.9528 305.536H0L0.00012207 161L53.0551 161C55.1624 161.014 57.2464 161.476 59.1882 162.359C61.1299 163.242 62.8914 164.529 64.372 166.146C65.8526 167.763 67.0234 169.679 67.8174 171.784C68.6114 173.889 69.0131 176.142 68.9997 178.414Z" fill="#A8A7A7"/>
<path d="M0 207.875V311H52.9532C57.2036 310.981 61.2748 309.149 64.2802 305.903C67.2857 302.658 68.9821 298.261 69 293.671V207.875H0Z" fill="#6E767A"/>
<path d="M0 213C14.528 213 14.5553 202 29.0834 202C43.6114 202 43.6389 213 58.1669 213C72.695 213 72.7223 202 87.2503 202C101.778 202 101.806 213 116.334 213C130.862 213 130.889 202 145.417 202C159.945 202 159.973 213 174.501 213C189.029 213 189.056 202 203.584 202C218.112 202 218.139 213 232.695 213C247.25 213 247.25 202 261.778 202C276.306 202 276.334 213 290.889 213C305.445 213 305.445 202 320 202" stroke="#58BEBF" stroke-width="5" stroke-miterlimit="10"/>
<path d="M58.1329 132.738H46.1617C41.1019 132.738 37 136.839 37 141.899V164.159C37 169.219 41.1019 173.321 46.1617 173.321H58.1329C63.1927 173.321 67.2946 169.219 67.2946 164.159V141.899C67.2946 136.839 63.1927 132.738 58.1329 132.738Z" fill="#A8A7A7"/>
<path d="M57.9902 139.001V119.496C57.9902 118.251 56.9808 117.241 55.7356 117.241H48.5601C47.3149 117.241 46.3054 118.251 46.3054 119.496V139.001C46.3054 140.246 47.3149 141.255 48.5601 141.255H55.7356C56.9808 141.255 57.9902 140.246 57.9902 139.001Z" fill="#A8A7A7"/>
<path d="M65.0178 121.88L48.1264 112.127C47.048 111.505 45.6691 111.874 45.0465 112.953L38.4526 124.374C37.83 125.452 38.1994 126.831 39.2778 127.454L56.1692 137.206C57.2476 137.828 58.6265 137.459 59.2491 136.381L65.843 124.959C66.4656 123.881 66.0962 122.502 65.0178 121.88Z" fill="#1C1C1C"/>
<path d="M62.8392 122.502L48.6752 114.325C47.5968 113.702 46.2179 114.072 45.5953 115.15L40.6297 123.751C40.0071 124.829 40.3766 126.208 41.455 126.831L55.619 135.008C56.6973 135.631 58.0763 135.261 58.6989 134.183L63.6645 125.582C64.2871 124.504 63.9176 123.125 62.8392 122.502Z" fill="#E7F3F1"/>
<path d="M48.3086 126.546L51.8516 120.838L54.3568 126.546H48.3086Z" fill="#EC626E"/>
<path d="M10.1252 160.987C10.1252 160.987 9.60624 163.224 10.1252 163.617C12.9678 164.402 15.8806 164.905 18.8217 165.12C19.5016 164.959 20.4142 163.778 19.8058 163.438C19.1974 163.098 14.8313 162.06 14.5629 160.987H10.1252Z" fill="#1C1C1C"/>
<path d="M19.1268 160.844C19.1268 160.844 18.5005 162.436 18.8226 162.83C21.3097 163.725 23.9018 164.297 26.5349 164.53C27.197 164.297 27.8053 163.385 27.358 162.83C26.9106 162.275 23.7792 161.703 23.7792 161.22L19.1268 160.844Z" fill="#1C1C1C"/>
<path d="M9.89393 160.987C9.48236 145.723 7.47823 127.149 9.73287 116.789H24.6028C25.408 122.3 24.6028 144.059 24.0302 161.202C22.3265 161.66 20.5183 161.534 18.8946 160.844C18.8946 160.844 17.5168 134.432 17.5526 133.269C17.6307 132.055 17.4602 130.837 17.0515 129.69C16.4811 130.911 16.1936 132.244 16.2105 133.591C16.2105 135.13 14.7969 161.005 14.7969 161.005C14.0212 161.335 13.1865 161.503 12.3436 161.5C11.5006 161.497 10.6672 161.323 9.89393 160.987V160.987Z" fill="#3C3829"/>
<path d="M25.6035 118.202C26.194 117.898 26.4266 116.413 26.0508 115.661C25.675 114.91 8.78308 111.904 8.29994 111.188C7.99008 109.181 8.14931 107.129 8.76517 105.193C9.15884 105.193 9.73145 116.771 9.73145 116.771H24.6014C24.6014 116.771 25.1203 105.247 25.5677 105.193C26.015 105.14 32.2063 119.419 32.4748 119.687C32.7432 119.956 34.7294 119.849 34.8547 119.383C34.9799 118.918 28.717 96.2284 27.5002 94.5643C26.2834 92.9001 19.1974 89.554 19.1974 89.554H14.366C14.366 89.554 5.83056 94.0633 4.90007 95.5306C3.96958 96.9979 3.11067 113.246 3.66538 114.105C4.2201 114.963 25.013 118.506 25.6035 118.202Z" fill="#EC626E"/>
<path d="M25.6051 118.202C26.1956 117.898 26.4282 116.413 26.0525 115.661C25.6767 114.91 8.78474 111.904 8.3016 111.188C7.99174 109.181 8.15097 107.129 8.76683 105.193C9.1605 105.193 9.73311 116.771 9.73311 116.771H24.603C24.603 116.771 25.122 105.247 25.5693 105.193C26.0167 105.14 32.208 119.419 32.4764 119.687C32.7448 119.956 34.7311 119.849 34.8563 119.383C34.9816 118.918 28.7187 96.2284 27.5019 94.5643C26.2851 92.9001 19.1991 89.554 19.1991 89.554H14.3677C14.3677 89.554 6.24378 94.4211 4.90173 95.5306C3.11233 97.0158 2.34288 113.246 3.66704 114.105C10.9027 115.855 18.2255 117.223 25.6051 118.202V118.202Z" fill="#EC626E"/>
<path d="M26.1067 110.669C26.1067 114.248 26.1066 118.417 25.3193 118.453C24.0488 118.453 17.6965 117.934 16.8375 117.934C15.9786 117.934 9.91255 119.187 8.69576 118.453C7.87263 117.952 8.69576 113.085 8.89259 109.792C8.89259 109.381 8.89259 108.987 8.89259 108.629C8.89259 107.52 8.89259 106.732 8.64208 106.589C7.81895 106.16 2.8981 98.358 4.18647 95.8528C5.02749 94.2424 12.3998 90.0015 13.1335 90.1983C13.8671 90.3951 13.2409 90.6993 13.3482 91.2362C13.4556 91.773 16.1755 93.0256 16.7481 94.1171C17.1884 98.3251 17.3796 102.555 17.3207 106.786C17.3207 101.668 17.3207 94.7792 17.4817 94.2602C17.8217 93.3834 19.3785 93.0434 19.7722 92.3098C20.1658 91.5761 19.128 89.7688 19.7722 89.5004C20.4163 89.232 26.9298 92.614 27.9318 94.2602C28.9339 95.9065 26.1424 104.997 26.0351 106.052C26.0351 106.392 26.0351 107.699 26.0351 109.363C26.1066 109.756 26.1067 110.204 26.1067 110.669Z" fill="#F0D358"/>
<path d="M25.6039 118.202C25.8547 117.835 26.0243 117.418 26.1015 116.98C26.1786 116.542 26.1615 116.092 26.0513 115.661C25.6755 114.999 8.78356 111.904 8.30042 111.188C7.81729 110.472 3.45114 113.138 3.66586 114.122C4.18479 116.592 25.0134 119.133 25.6039 118.202Z" fill="#EC626E"/>
<path d="M20.5416 85.0805C20.5416 87.8899 20.5416 89.5719 16.9628 90.574C14.2608 91.3434 11.8809 88.3014 11.8809 85.4921C11.8809 84.1443 12.4163 82.8517 13.3693 81.8986C14.3223 80.9456 15.615 80.4102 16.9628 80.4102C19.79 80.4102 20.5416 82.2711 20.5416 85.0805Z" fill="#E3C5D1"/>
<path d="M21.4883 82.2534C23.0272 85.0269 18.4106 82.0028 15.637 83.5596C12.8634 85.1164 12.9708 90.6278 11.4319 87.8363C10.6915 86.5027 10.5113 84.9297 10.9308 83.4632C11.3502 81.9967 12.3351 80.7569 13.6686 80.0166C15.0022 79.2763 16.5753 79.096 18.0417 79.5155C19.5082 79.9349 20.748 80.9198 21.4883 82.2534V82.2534Z" fill="#3C3829"/>
<path d="M10.8972 86.8163C15.0395 86.0685 19.0299 84.6416 22.7072 82.5933C22.7967 82.3964 22.5641 82.2712 22.3493 82.2354C22.1346 82.1996 21.9915 82.5038 21.7767 82.2354C21.562 81.967 19.3431 76.6703 13.9928 78.3166C8.6425 79.9628 10.7719 85.9037 10.6824 86.1184C10.5929 86.3331 10.8972 86.8163 10.8972 86.8163Z" fill="#EF794C"/>
<path d="M34.8547 118.668C34.8547 118.668 37.2346 121.924 37.1272 123.052C37.0199 124.179 34.7652 124.573 34.2105 124.304C33.6558 124.036 32.9579 121.71 32.9579 121.71C32.9579 121.71 32.5822 123.499 32.1706 122.909C31.759 122.318 32.4032 119.473 32.4032 119.473C33.1428 119.009 33.9842 118.733 34.8547 118.668V118.668Z" fill="#E3C5D1"/>
<path d="M15.5837 89.4646L13.8301 90.8424L16.9973 93.0076L19.8425 91.2361L18.572 89.4646H15.5837Z" fill="#E3C5D1"/>
<path d="M28.4331 114.847L27.0286 116.251C25.7918 117.488 25.7918 119.494 27.0286 120.731L31.1282 124.83C32.3651 126.067 34.3705 126.067 35.6074 124.83L37.0119 123.426C38.2487 122.189 38.2487 120.183 37.0119 118.946L32.9123 114.847C31.6754 113.61 29.67 113.61 28.4331 114.847Z" fill="#1C1C1C"/>
<path d="M34.7139 118.507L34.2308 118.024C34.2308 118.024 32.4414 119.598 32.4414 119.813C32.4414 120.028 34.2308 121.602 34.2308 121.602L34.7497 121.084C35.0733 120.73 35.2499 120.267 35.2432 119.788C35.2366 119.309 35.0472 118.851 34.7139 118.507V118.507Z" fill="#F0D358"/>
<path d="M33.8362 117.648L33.3531 117.165C33.1785 116.989 32.9708 116.849 32.742 116.754C32.5132 116.659 32.2678 116.61 32.02 116.61C31.7722 116.61 31.5268 116.659 31.298 116.754C31.0692 116.849 30.8615 116.989 30.6869 117.165L30.168 117.684C30.7092 118.333 31.3081 118.932 31.9574 119.473C32.2616 119.527 33.8362 117.648 33.8362 117.648Z" fill="#F0D358"/>
<path d="M30.2051 121.96L30.6882 122.443C30.8628 122.619 31.0705 122.759 31.2993 122.854C31.5281 122.949 31.7735 122.998 32.0213 122.998C32.2691 122.998 32.5145 122.949 32.7433 122.854C32.9721 122.759 33.1798 122.619 33.3544 122.443L33.8197 121.978C33.8197 121.978 32.3166 120.189 32.0303 120.189C31.744 120.189 30.2051 121.96 30.2051 121.96Z" fill="#F0D358"/>
<path d="M29.7935 117.952L29.3283 118.417C29.1525 118.592 29.0129 118.799 28.9177 119.028C28.8225 119.257 28.7734 119.502 28.7734 119.75C28.7734 119.998 28.8225 120.243 28.9177 120.472C29.0129 120.701 29.1525 120.909 29.3283 121.083L29.8114 121.566C30.4503 121.014 31.0483 120.416 31.6008 119.777C31.0429 119.126 30.4389 118.516 29.7935 117.952Z" fill="#F0D358"/>
<path d="M25.6057 118.202C25.6057 118.202 29.1845 120.117 30.2582 119.849C31.3318 119.58 31.4392 117.29 31.0992 116.789C30.7592 116.288 28.3435 115.912 28.3435 115.912C28.3435 115.912 30.1329 115.286 29.4172 114.964C28.7014 114.642 26.0352 115.679 26.0352 115.679C25.6907 116.473 25.5434 117.339 25.6057 118.202V118.202Z" fill="#E3C5D1"/>
<path d="M26.1066 110.669C23.0825 110.794 20.13 110.866 17.428 110.812C14.5512 110.835 11.6831 110.492 8.89258 109.792C8.89258 109.381 8.89258 108.987 8.89258 108.629C11.6901 109.101 14.5197 109.358 17.3565 109.399C20.1121 109.399 23.0289 109.399 26.0351 109.399C26.1066 109.756 26.1066 110.204 26.1066 110.669Z" fill="#3C3829"/>
<path d="M55.3054 170.601C62.2924 170.601 67.9564 164.937 67.9564 157.95C67.9564 150.963 62.2924 145.299 55.3054 145.299C48.3184 145.299 42.6543 150.963 42.6543 157.95C42.6543 164.937 48.3184 170.601 55.3054 170.601Z" fill="#A48D29"/>
<path d="M70 207.5C70 187.5 71.0053 172.872 62 171C60.7911 170.867 52.9011 170.349 51.7278 170.029C45.3039 167.81 42.1008 163.229 42.924 155.714C43.4608 151.061 47.4511 148.556 54.1793 147.804" stroke="#787B71" stroke-miterlimit="10"/>
<path d="M70.0005 207.5C69 237 94.6309 236.089 97.0005 258.5C101.604 302.035 20.3641 300.418 24.5005 344C29.114 392.609 85.9961 428.439 131 409.5C160.755 396.978 145.73 340.656 178 341.5C193.543 341.906 203.5 358.5 214 358.5" stroke="#474747"/>
<path d="M55.306 169.528C61.7 169.528 66.8834 164.344 66.8834 157.95C66.8834 151.556 61.7 146.373 55.306 146.373C48.9119 146.373 43.7285 151.556 43.7285 157.95C43.7285 164.344 48.9119 169.528 55.306 169.528Z" fill="#F0D358"/>
<path d="M251.94 337.146H243.156C232.924 337.146 224.629 345.44 224.629 355.673C224.629 365.905 232.924 374.199 243.156 374.199H251.94C262.172 374.199 270.467 365.905 270.467 355.673C270.467 345.44 262.172 337.146 251.94 337.146Z" fill="#1C1C1C"/>
<path d="M290.479 334.053H207.093C205.385 334.053 204 335.437 204 337.146C204 338.854 205.385 340.239 207.093 340.239H290.479C292.187 340.239 293.572 338.854 293.572 337.146C293.572 335.437 292.187 334.053 290.479 334.053Z" fill="#63A4A5"/>
<path d="M290.478 334.053H290.942C290.942 321.867 272.106 312 248.847 312C225.588 312 206.752 321.867 206.752 334.053H290.478Z" fill="#F0D358"/>
<path d="M290.944 334.084C290.928 336.255 290.353 338.386 289.273 340.27H290.48C291.3 340.331 292.111 340.064 292.735 339.528C293.358 338.991 293.743 338.229 293.805 337.409C293.866 336.588 293.599 335.777 293.063 335.154C292.526 334.53 291.764 334.145 290.944 334.084V334.084Z" fill="#363636"/>
<path d="M204 337.146C204 337.966 204.326 338.753 204.906 339.333C205.486 339.913 206.273 340.239 207.093 340.239H208.423C207.343 338.355 206.768 336.224 206.753 334.053C205.993 334.137 205.291 334.499 204.783 335.071C204.274 335.642 203.995 336.381 204 337.146V337.146Z" fill="#363636"/>
<path d="M290.478 334.053H206.752C206.767 336.224 207.343 338.355 208.422 340.239H289.272C290.352 338.355 290.927 336.224 290.942 334.053H290.478Z" fill="#363636"/>
<path d="M290.479 371.137H207.093C205.385 371.137 204 372.522 204 374.23C204 375.938 205.385 377.323 207.093 377.323H290.479C292.187 377.323 293.572 375.938 293.572 374.23C293.572 372.522 292.187 371.137 290.479 371.137Z" fill="#363636"/>
<path d="M216.031 375.127V334.084H209.845V375.127H216.031Z" fill="#363636"/>
<path d="M222.217 379.829V374.756C222.217 373.048 220.832 371.663 219.124 371.663C217.416 371.663 216.031 373.048 216.031 374.756V379.829C216.031 381.537 217.416 382.921 219.124 382.921C220.832 382.921 222.217 381.537 222.217 379.829Z" fill="#363636"/>
<path d="M280.119 379.303V374.23C280.119 372.522 278.734 371.137 277.026 371.137C275.318 371.137 273.933 372.522 273.933 374.23V379.303C273.933 381.011 275.318 382.396 277.026 382.396C278.734 382.396 280.119 381.011 280.119 379.303Z" fill="#363636"/>
<path d="M286.334 375.127V334.084H280.148V375.127H286.334Z" fill="#363636"/>
<path d="M209.505 347.167L207.866 362.632C207.823 363.045 207.945 363.46 208.205 363.784C208.466 364.109 208.844 364.317 209.258 364.364L226.022 366.157C228.068 366.374 230.117 365.769 231.718 364.476C233.318 363.183 234.34 361.307 234.558 359.26L234.806 356.786C234.922 355.721 234.826 354.644 234.525 353.617C234.223 352.589 233.722 351.631 233.05 350.798C232.377 349.965 231.547 349.272 230.606 348.761C229.666 348.249 228.633 347.928 227.568 347.816L210.99 346.053C210.649 346.024 210.309 346.121 210.035 346.326C209.761 346.532 209.573 346.831 209.505 347.167V347.167ZM231.342 352.023C232.274 353.173 232.844 354.575 232.979 356.05C233.115 357.525 232.81 359.006 232.103 360.308C231.396 361.609 230.318 362.671 229.007 363.36C227.696 364.049 226.21 364.334 224.738 364.178C223.265 364.022 221.871 363.432 220.734 362.484C219.596 361.536 218.765 360.272 218.346 358.851C217.927 357.431 217.94 355.918 218.381 354.504C218.822 353.09 219.673 351.839 220.826 350.909C222.368 349.664 224.342 349.082 226.314 349.291C228.285 349.5 230.094 350.482 231.342 352.023V352.023Z" fill="#363636"/>
<path d="M260.756 361.023L269.386 375.282C269.577 375.59 269.882 375.811 270.235 375.897C270.587 375.984 270.959 375.93 271.272 375.746L284.479 367.766C284.836 367.548 285.091 367.198 285.19 366.792C285.288 366.386 285.222 365.958 285.005 365.601L276.283 351.157C275.755 350.283 275.061 349.521 274.239 348.916C273.417 348.311 272.484 347.873 271.493 347.629C270.502 347.385 269.472 347.339 268.463 347.493C267.454 347.647 266.485 347.999 265.612 348.528L263.478 349.796C262.559 350.351 261.758 351.083 261.123 351.949C260.488 352.815 260.031 353.799 259.778 354.843C259.525 355.886 259.481 356.97 259.649 358.031C259.817 359.092 260.193 360.109 260.756 361.023V361.023ZM270.623 349.827C272.06 350.182 273.359 350.955 274.357 352.048C275.355 353.142 276.006 354.507 276.228 355.97C276.45 357.434 276.233 358.93 275.605 360.27C274.977 361.611 273.965 362.735 272.698 363.5C271.431 364.265 269.965 364.638 268.487 364.57C267.008 364.503 265.583 363.999 264.39 363.121C263.198 362.244 262.293 361.032 261.789 359.64C261.286 358.249 261.206 356.739 261.56 355.301C261.796 354.347 262.217 353.448 262.8 352.656C263.383 351.864 264.116 351.195 264.957 350.687C265.799 350.178 266.732 349.841 267.704 349.693C268.677 349.546 269.668 349.591 270.623 349.827V349.827Z" fill="#363636"/>
<path d="M228.589 362.663C228.256 362.681 227.923 362.633 227.608 362.523C227.294 362.412 227.004 362.241 226.755 362.018C226.507 361.796 226.305 361.526 226.16 361.225C226.016 360.925 225.932 360.599 225.914 360.266C225.896 359.932 225.943 359.599 226.054 359.284C226.164 358.97 226.336 358.68 226.558 358.431C226.781 358.183 227.05 357.981 227.351 357.836C227.652 357.692 227.978 357.608 228.311 357.59C229.703 357.59 230.847 357.59 230.909 358.92C230.971 360.25 229.981 362.446 228.589 362.663Z" fill="#4D4C4C"/>
<path d="M229.794 351.868C229.959 352.177 230.057 352.517 230.084 352.866C230.111 353.215 230.065 353.566 229.949 353.897C229.833 354.227 229.651 354.53 229.412 354.786C229.174 355.043 228.885 355.247 228.564 355.386C228.242 355.525 227.896 355.597 227.546 355.595C227.196 355.594 226.849 355.52 226.529 355.378C226.209 355.237 225.922 355.031 225.685 354.772C225.448 354.514 225.268 354.21 225.155 353.879C224.598 352.611 224.196 351.528 225.495 350.971C226.794 350.415 229.238 350.6 229.794 351.868Z" fill="#4D4C4C"/>
<path d="M219.217 356.786C219.35 356.157 219.717 355.602 220.244 355.234C220.771 354.865 221.418 354.71 222.055 354.801C222.691 354.891 223.27 355.22 223.673 355.72C224.077 356.221 224.275 356.856 224.228 357.497C224.042 358.889 223.826 360.003 222.434 359.786C221.042 359.57 219.001 358.178 219.217 356.786Z" fill="#4D4C4C"/>
<path d="M225.742 357.93C226.357 357.93 226.856 357.432 226.856 356.817C226.856 356.202 226.357 355.703 225.742 355.703C225.127 355.703 224.629 356.202 224.629 356.817C224.629 357.432 225.127 357.93 225.742 357.93Z" fill="#4D4C4C"/>
<path d="M272.167 362.786C271.495 362.823 270.835 362.591 270.333 362.142C269.832 361.692 269.529 361.062 269.492 360.389C269.455 359.717 269.687 359.057 270.136 358.555C270.586 358.053 271.216 357.751 271.889 357.714C273.281 357.714 274.425 357.714 274.487 359.044C274.549 360.374 273.559 362.724 272.167 362.786Z" fill="#4D4C4C"/>
<path d="M273.404 352.023C273.568 352.332 273.667 352.672 273.693 353.021C273.72 353.37 273.674 353.721 273.558 354.051C273.443 354.382 273.26 354.685 273.021 354.941C272.783 355.197 272.494 355.402 272.173 355.541C271.852 355.68 271.505 355.751 271.155 355.75C270.805 355.749 270.459 355.675 270.139 355.533C269.818 355.392 269.531 355.185 269.294 354.927C269.058 354.669 268.877 354.365 268.764 354.033C268.207 352.765 267.806 351.683 269.105 351.126C270.404 350.569 272.816 350.724 273.404 352.023Z" fill="#4D4C4C"/>
<path d="M262.797 356.91C262.93 356.281 263.297 355.726 263.824 355.357C264.351 354.989 264.998 354.834 265.635 354.924C266.271 355.015 266.85 355.344 267.253 355.844C267.657 356.345 267.855 356.98 267.808 357.621C267.622 359.013 267.406 360.127 266.014 359.91C264.622 359.694 262.612 358.302 262.797 356.91Z" fill="#4D4C4C"/>
<path d="M269.352 358.054C269.967 358.054 270.465 357.556 270.465 356.941C270.465 356.326 269.967 355.827 269.352 355.827C268.737 355.827 268.238 356.326 268.238 356.941C268.238 357.556 268.737 358.054 269.352 358.054Z" fill="#4D4C4C"/>
<path d="M248.198 366.714C254.432 366.714 259.487 361.66 259.487 355.425C259.487 349.19 254.432 344.136 248.198 344.136C241.963 344.136 236.908 349.19 236.908 355.425C236.908 361.66 241.963 366.714 248.198 366.714Z" fill="#4D4C4C"/>
<path d="M256.512 358.021C257.984 353.38 255.414 348.425 250.774 346.954C246.133 345.483 241.178 348.052 239.707 352.693C238.236 357.334 240.805 362.288 245.446 363.76C250.086 365.231 255.041 362.661 256.512 358.021Z" fill="#61BFB5"/>
<path d="M241.766 353.384C242.033 352.539 242.464 351.754 243.035 351.076C243.606 350.397 244.305 349.838 245.092 349.43C245.879 349.022 246.739 348.774 247.622 348.698C248.506 348.623 249.395 348.723 250.24 348.992" stroke="#D1D0D1" stroke-miterlimit="10"/>
</svg>
