<svg width="1251" height="224" viewBox="0 0 1251 224" fill="none" xmlns="http://www.w3.org/2000/svg">
<path d="M1250 155C1159 128.5 1182 194.5 1130 203.5C1078 212.5 1030.5 129.5 972.5 147.204C914.5 164.908 863.66 215.535 790.5 204.5C753.5 198.919 693 151.674 650.5 158.674C608 165.674 513.5 224 457.5 222C401.5 220 330.623 177.119 258.5 171.5C186.377 165.881 90.9672 192.984 62 194.5C33.0328 196.016 1.5 185.928 1.5 166.5C1.5 147.072 65.6966 149.591 41 118.666C15.6174 86.8619 45.0005 61.2894 88 64.5C131 67.7106 174.696 111.551 207.433 122.5C246.399 135.534 295.501 137.289 277.5 97.5C270.859 82.8467 258.116 51.2439 255.564 37.6333C253.012 24.0227 253.177 9.25964 248.237 6.48813C238.331 1 233.831 6.48813 207.433 1" stroke="#474747" stroke-width="2" stroke-miterlimit="10"/>
</svg>
