<svg width="49" height="49" viewBox="0 0 49 49" fill="none" xmlns="http://www.w3.org/2000/svg">
<rect x="47.5" y="47.2544" width="45.7544" height="45.7544" rx="22.8772" transform="rotate(-180 47.5 47.2544)" stroke="white" stroke-width="3"/>
<path d="M20.1685 32.8822C19.5827 33.468 19.5827 34.4177 20.1685 35.0035C20.7543 35.5893 21.704 35.5893 22.2898 35.0035L20.1685 32.8822ZM30.4863 24.6857L31.547 25.7464L32.6076 24.6857L31.547 23.6251L30.4863 24.6857ZM22.2898 14.3679C21.704 13.7821 20.7543 13.7821 20.1685 14.3679C19.5827 14.9537 19.5827 15.9034 20.1685 16.4892L22.2898 14.3679ZM22.2898 35.0035L31.547 25.7464L29.4257 23.6251L20.1685 32.8822L22.2898 35.0035ZM31.547 23.6251L22.2898 14.3679L20.1685 16.4892L29.4257 25.7464L31.547 23.6251Z" fill="white"/>
</svg>
