<svg width="94" height="56" viewBox="0 0 94 56" fill="none" xmlns="http://www.w3.org/2000/svg">
<path d="M73.4545 16.0802H67.7145C66.6515 11.5146 64.0219 7.43589 60.2577 4.51381C56.4935 1.59173 51.8184 0 47 0C42.1817 0 37.5066 1.59173 33.7424 4.51381C29.9782 7.43589 27.3486 11.5146 26.2856 16.0802H20.5456C15.0966 16.0802 9.87073 18.1831 6.01768 21.9263C2.16463 25.6696 0 30.7464 0 36.0401C0 41.3338 2.16463 46.4107 6.01768 50.1539C9.87073 53.8971 15.0966 56 20.5456 56H73.4545C78.9035 56 84.1294 53.8971 87.9824 50.1539C91.8355 46.4107 94 41.3338 94 36.0401C94 30.7464 91.8355 25.6696 87.9824 21.9263C84.1294 18.1831 78.9035 16.0802 73.4545 16.0802Z" fill="#FFFFFD"/>
</svg>
