<svg width="199" height="199" viewBox="0 0 199 199" fill="none" xmlns="http://www.w3.org/2000/svg">
<path d="M99.8103 194.408C152.382 194.408 194.999 151.791 194.999 99.2193C194.999 46.6478 152.382 4.03003 99.8103 4.03003C47.2387 4.03003 4.62109 46.6478 4.62109 99.2193C4.62109 151.791 47.2387 194.408 99.8103 194.408Z" fill="white" stroke="white" stroke-width="8"/>
<mask id="mask0" mask-type="alpha" maskUnits="userSpaceOnUse" x="8" y="8" width="183" height="183">
<path d="M99.4206 190.378C149.783 190.378 190.61 149.552 190.61 99.1892C190.61 48.8268 149.783 8 99.4206 8C49.0582 8 8.23145 48.8268 8.23145 99.1892C8.23145 149.552 49.0582 190.378 99.4206 190.378Z" fill="white"/>
</mask>
<g mask="url(#mask0)">
<path d="M180.454 1.10803H17.5565C-0.97086 1.10803 -15.9902 16.1274 -15.9902 34.6547V164.425C-15.9902 182.952 -0.97086 197.971 17.5565 197.971H180.454C198.981 197.971 214 182.952 214 164.425V34.6547C214 16.1274 198.981 1.10803 180.454 1.10803Z" fill="#E5E4E4"/>
<path d="M43.0448 70.4034L43.1068 129.641C43.1131 135.632 47.9744 140.483 53.9649 140.477L141.745 140.385C147.736 140.378 152.587 135.517 152.581 129.527L152.519 70.2887C152.513 64.2982 147.651 59.4471 141.661 59.4534L53.8802 59.5453C47.8897 59.5516 43.0385 64.4129 43.0448 70.4034Z" fill="#63A4A5"/>
<path d="M49.2005 75.7366L49.2513 124.268C49.2576 130.258 54.119 135.109 60.1095 135.103L135.59 135.024C141.58 135.018 146.431 130.156 146.425 124.166L146.374 75.6348C146.368 69.6443 141.507 64.7931 135.516 64.7994L60.0359 64.8785C54.0454 64.8847 49.1942 69.7461 49.2005 75.7366Z" fill="white"/>
<path d="M128.55 75.0421L62.547 75.1112C59.9069 75.114 57.7688 77.2565 57.7716 79.8967L57.7745 82.6643C57.7773 85.3044 59.9198 87.4424 62.5599 87.4396L128.563 87.3705C131.203 87.3677 133.341 85.2253 133.338 82.5851L133.336 79.8175C133.333 77.1774 131.19 75.0393 128.55 75.0421Z" fill="#6E767A"/>
<path d="M105.785 94.5787L62.7052 94.6238C60.065 94.6265 57.927 96.769 57.9298 99.4092L57.9327 102.177C57.9355 104.817 60.078 106.955 62.7181 106.952L105.798 106.907C108.438 106.904 110.576 104.762 110.573 102.122L110.57 99.354C110.567 96.7139 108.425 94.5759 105.785 94.5787Z" fill="#6E767A"/>
<path d="M99.5773 113.993C97.8161 117.431 114.366 131.828 115.875 131.996C117.385 132.164 140.141 96.6322 137.373 95.9333C134.606 95.2344 117.161 118.801 115.372 119.22C113.583 119.64 101.339 110.554 99.5773 113.993Z" fill="#EF794C"/>
</g>
</svg>
